<?xml version="1.0" encoding="utf-8"?>
<!-- Generator: Adobe Illustrator 26.0.1, SVG Export Plug-In . SVG Version: 6.00 Build 0)  -->
<svg version="1.1" id="Layer_1" xmlns="http://www.w3.org/2000/svg" xmlns:xlink="http://www.w3.org/1999/xlink" x="0px" y="0px"
	 viewBox="0 0 1186.3 786" style="enable-background:new 0 0 1186.3 786;" xml:space="preserve">
<style type="text/css">
	.st0{fill:#FFFFFF;stroke:#000000;stroke-width:3;stroke-miterlimit:10;}
	.st1{fill:#F2F2F2;}
	.st2{fill:none;stroke:#000000;stroke-width:3;stroke-miterlimit:10;}
	.st3{fill:none;stroke:#000000;stroke-width:2;stroke-miterlimit:10;}
	.st4{fill:#F2F2F3;stroke:#000000;stroke-width:2;stroke-miterlimit:10;}
	.st5{fill:#FFFFFF;}
</style>
<rect x="28.6" y="24.7" class="st0" width="1006.2" height="712.9"/>
<rect x="44.1" y="115.7" class="st1" width="36.2" height="291.6"/>
<rect x="965.6" y="108.6" class="st1" width="36.2" height="353.8"/>
<path class="st2" d="M110,414H64c-4.4,0-8-3.6-8-8V113c0-4.4,3.6-8,8-8h46c4.4,0,8,3.6,8,8v293C118,410.4,114.5,414,110,414z"/>
<circle class="st3" cx="87" cy="137.7" r="22"/>
<path class="st2" d="M975.7,468.1h-46c-4.4,0-8-3.6-8-8V113c0-4.4,3.6-8,8-8h46c4.4,0,8,3.6,8,8v347.1
	C983.7,464.5,980.1,468.1,975.7,468.1z"/>
<circle class="st3" cx="952.6" cy="137.7" r="22"/>
<circle class="st4" cx="1096.6" cy="101.4" r="44.4"/>
<circle class="st4" cx="1096.6" cy="204.2" r="44.4"/>
<circle class="st4" cx="1096.6" cy="307" r="44.4"/>
<circle class="st4" cx="1096.6" cy="407.3" r="44.4"/>
<circle class="st4" cx="1096.6" cy="512.5" r="44.4"/>
<circle class="st3" cx="87" cy="195.8" r="22"/>
<circle class="st3" cx="87" cy="251.9" r="22"/>
<circle class="st3" cx="87" cy="307.9" r="22"/>
<circle class="st3" cx="87" cy="363.9" r="22"/>
<path d="M317.6,155.4L266,181.2v126v126l51.7,25.8l51.7,25.8L421,459l51.7-25.8v-126v-126l-51.6-25.8
	c-28.4-14.2-51.7-25.8-51.8-25.9C369.2,129.5,345.9,141.1,317.6,155.4z M292.1,198.1c8.8,4.3,30.1,14.9,47.4,23.5
	c17.3,8.6,31.6,15.6,31.7,15.6c0.1,0,20.7-10.1,45.7-22.5c25-12.4,45.6-22.5,45.7-22.5c0.1,0,0.3,50.2,0.3,117.5v117.4l-46.8,23.4
	l-46.8,23.4l-9.9-4.9l-9.9-4.9v-20.8v-20.8l-24.4-12.2c-13.4-6.7-24.4-12.3-24.6-12.3c-0.1-0.1-0.2,9.3-0.2,20.8v20.9l-12.4-6.2
	l-12.4-6.2V308.7c0-65.1,0.1-118.4,0.2-118.4C276,190.3,283.3,193.8,292.1,198.1z M325.3,421.2l14.6,7.3v14.1
	c0,7.8-0.1,14.1-0.1,14.1s-6.8-3.3-14.9-7.4l-14.7-7.4v-14c0-9.1,0.1-14,0.3-14C310.6,413.9,317.2,417.2,325.3,421.2z"/>
<path d="M420.9,204.7l-51.6,25.9v126v126l51.7,25.8l51.7,25.8l51.7-25.8l51.7-25.8v-126v-126l-51.6-25.8
	c-28.4-14.2-51.7-25.8-51.8-25.9C472.6,178.8,449.3,190.4,420.9,204.7z"/>
<path class="st5" d="M395.4,247.5c8.8,4.3,30.1,14.9,47.4,23.5c17.3,8.6,31.6,15.6,31.7,15.6c0.1,0,20.7-10.1,45.7-22.5
	c25-12.4,45.6-22.5,45.7-22.5s0.2,50.2,0.2,117.5v117.4l-46.8,23.4l-46.8,23.4l-9.9-4.9l-9.9-4.9v-20.8v-20.8l-24.4-12.2
	c-13.4-6.7-24.4-12.3-24.6-12.3c-0.1-0.1-0.2,9.3-0.2,20.8v20.9l-12.4-6.2l-12.4-6.2V358c0-65.1,0.1-118.4,0.2-118.4
	C379.4,239.6,386.7,243.1,395.4,247.5z"/>
<path d="M428.6,470.5l14.6,7.3v14.1c0,7.8-0.1,14.1-0.1,14.1s-6.8-3.3-14.9-7.4l-14.7-7.4v-14c0-9.1,0.1-14,0.3-14
	C413.9,463.2,420.6,466.5,428.6,470.5z"/>
<path d="M524.2,256.7l-51.6,25.9v126v126l51.7,25.8l51.7,25.8l51.7-25.8l51.7-25.8v-126v-126l-51.6-25.8
	c-28.4-14.2-51.7-25.8-51.8-25.9C575.9,230.9,552.6,242.5,524.2,256.7z"/>
<path class="st5" d="M498.8,299.5c8.8,4.3,30.1,14.9,47.4,23.5c17.3,8.6,31.6,15.6,31.7,15.6c0.1,0,20.7-10.1,45.7-22.5
	c25-12.4,45.6-22.5,45.7-22.5s0.2,50.2,0.2,117.5v117.4l-46.8,23.4L576,575.3l-9.9-4.9l-9.9-4.9v-20.8v-20.8l-24.4-12.2
	c-13.4-6.7-24.4-12.3-24.6-12.3c-0.1-0.1-0.2,9.3-0.2,20.8v20.9l-12.4-6.2l-12.4-6.2V410.1c0-65.1,0.1-118.4,0.2-118.4
	C482.7,291.6,490,295.2,498.8,299.5z"/>
<path d="M532,522.5l14.6,7.3v14.1c0,7.8-0.1,14.1-0.1,14.1c-0.1,0-6.8-3.3-14.9-7.4l-14.7-7.4v-14c0-9.1,0.1-14,0.3-14
	C517.2,515.3,523.9,518.5,532,522.5z"/>
<path d="M627.6,308.3L576,334.1v126v126l51.7,25.8l51.7,25.8l51.7-25.8l51.7-25.8v-126v-126l-51.6-25.8
	c-28.4-14.2-51.7-25.8-51.8-25.9C679.3,282.4,656,294,627.6,308.3z"/>
<path class="st5" d="M602.1,351c8.8,4.3,30.1,14.9,47.4,23.5c17.3,8.6,31.6,15.6,31.7,15.6c0.1,0,20.7-10.1,45.7-22.5
	c25-12.4,45.6-22.5,45.7-22.5s0.2,50.2,0.2,117.5V580l-46.8,23.4l-46.8,23.4l-9.9-4.9l-9.9-4.9v-20.8v-20.8L635.2,563
	c-13.4-6.7-24.4-12.3-24.6-12.3c-0.1-0.1-0.2,9.3-0.2,20.8v20.9l-12.4-6.2l-12.4-6.2V461.6c0-65.1,0.1-118.4,0.2-118.4
	C586.1,343.1,593.4,346.7,602.1,351z"/>
<path d="M635.3,577.2l14.6,7.3v14.1c0,7.8-0.1,14.1-0.1,14.1c-0.1,0-6.8-3.3-14.9-7.4l-14.7-7.4v-14c0-9.1,0.1-14,0.3-14
	C620.6,569.9,627.3,573.2,635.3,577.2z"/>
<path d="M285.7,231l0,20.2l14.5,7.2c8,4,14.6,7.3,14.7,7.3c0.1,0.1,0.2-9,0.2-20.1l0-20.2l-14.5-7.2c-8-4-14.6-7.3-14.7-7.3
	C285.8,210.8,285.7,219.9,285.7,231z M300.4,229.1l4.8,2.5l0.1,9.2c0,5.1,0,9.2-0.1,9.1c-0.1-0.1-2.4-1.2-5-2.5l-4.8-2.4v-9.2
	c0-5.1,0.1-9.2,0.1-9.2C295.6,226.6,297.8,227.8,300.4,229.1z"/>
<path d="M334.9,255.5v20.2l14.7,7.4l14.7,7.4v-20.2v-20.2l-14.7-7.4l-14.7-7.4V255.5z M349.7,253.8l4.9,2.4v9.1c0,5-0.1,9.1-0.1,9.1
	c-0.1,0-2.3-1.1-5-2.4l-4.9-2.4v-9.1c0-5,0.1-9.1,0.1-9.1C344.8,251.4,347,252.5,349.7,253.8z"/>
<path d="M285.7,290v20.2l14.7,7.4l14.7,7.4v-20.2v-20.2l-14.7-7.4l-14.7-7.4V290z M300.6,288.2l4.9,2.4v9.1c0,6-0.1,9.1-0.3,9.1
	c-0.2,0-2.4-1.1-5-2.4l-4.7-2.4V295c0-5.1,0.1-9.2,0.1-9.2S297.9,286.9,300.6,288.2z"/>
<path d="M334.9,314.6l0,20.2l14.5,7.2c7.9,4,14.6,7.3,14.7,7.3c0.1,0.1,0.2-9,0.2-20.1l0-20.2l-14.5-7.2c-8-4-14.6-7.3-14.7-7.3
	C334.9,294.4,334.9,303.5,334.9,314.6z M354.6,324.4c0,5.1-0.1,9.2-0.2,9.2c-0.1,0-2.3-1.1-4.9-2.4l-4.7-2.4l-0.1-9.3l-0.1-9.2
	l5,2.5l5,2.5V324.4z"/>
<path d="M285.7,349.1l0,20.2l7.7,3.8c4.2,2.1,10.8,5.4,14.7,7.4l7,3.6l0-20.3l0-20.3l-14.5-7.2c-8-4-14.6-7.3-14.7-7.3
	C285.8,328.9,285.7,337.9,285.7,349.1z M305.4,358.9c0,5.1-0.1,9.2-0.1,9.2s-2.3-1.1-5-2.4l-4.9-2.4V354v-9.3l5,2.5l5,2.5V358.9z"/>
<path d="M334.9,373.7V394l1.6,0.7c0.9,0.4,7.5,3.6,14.7,7.3l13.1,6.6v-20.2v-20.2l-14.7-7.4l-14.7-7.4V373.7z M349.7,371.9l4.9,2.4
	v9.2v9.3l-5-2.5l-5-2.5v-9.2c0-5.1,0.1-9.2,0.1-9.2S347.1,370.5,349.7,371.9z"/>
<path d="M384.1,277.8l0,20.2l14.5,7.2c8,4,14.6,7.3,14.7,7.3c0.1,0.1,0.2-9,0.2-20.1l0-20.2l-14.5-7.2c-8-4-14.6-7.3-14.7-7.3
	C384.1,257.6,384,266.7,384.1,277.8z M398.8,275.9l4.8,2.5l0.1,9.2c0,5.1,0,9.2-0.1,9.1c-0.1-0.1-2.4-1.2-5-2.5l-4.8-2.4v-9.2
	c0-5.1,0.1-9.2,0.1-9.2C393.9,273.4,396.1,274.5,398.8,275.9z"/>
<path d="M433.2,302.3v20.2l14.7,7.4l14.7,7.4v-20.2v-20.2l-14.7-7.4l-14.7-7.4V302.3z M448,300.6l4.9,2.4v9.1c0,5-0.1,9.1-0.1,9.1
	s-2.3-1.1-5-2.4l-4.9-2.4v-9.1c0-5,0.1-9.1,0.1-9.1C443.1,298.2,445.4,299.2,448,300.6z"/>
<path d="M384,336.7v20.2l14.7,7.4l14.7,7.4v-20.2v-20.2l-14.7-7.4l-14.7-7.4V336.7z M398.9,335l4.9,2.4v9.1c0,6-0.1,9.1-0.3,9.1
	s-2.4-1.1-5-2.4l-4.7-2.4v-9.2c0-5.1,0.1-9.2,0.1-9.2C394,332.6,396.2,333.7,398.9,335z"/>
<path d="M433.2,361.4l0,20.2l14.5,7.2c7.9,4,14.6,7.3,14.7,7.3c0.1,0.1,0.2-9,0.2-20.1l0-20.2l-14.5-7.2c-8-4-14.6-7.3-14.7-7.3
	C433.3,341.2,433.2,350.3,433.2,361.4z M452.9,371.2c0,5.1-0.1,9.2-0.2,9.2c-0.1,0-2.3-1.1-4.9-2.4l-4.7-2.4l-0.1-9.3l-0.1-9.2
	l5,2.5l5,2.5V371.2z"/>
<path d="M384,395.9l0,20.2l7.7,3.8c4.2,2.1,10.8,5.4,14.7,7.4l7,3.6l0-20.3l0-20.3l-14.5-7.2c-8-4-14.6-7.3-14.7-7.3
	C384.1,375.7,384,384.7,384,395.9z M403.8,405.7c0,5.1-0.1,9.2-0.1,9.2s-2.3-1.1-5-2.4l-4.9-2.4v-9.2v-9.3l5,2.5l5,2.5V405.7z"/>
<path d="M433.2,420.5v20.3l1.6,0.7c0.9,0.4,7.5,3.6,14.7,7.3l13.1,6.6v-20.2V415l-14.7-7.4l-14.7-7.4V420.5z M448.1,418.6l4.9,2.4
	v9.2v9.3l-5-2.5l-5-2.5v-9.2c0-5.1,0.1-9.2,0.1-9.2S445.4,417.3,448.1,418.6z"/>
<path d="M489.9,329.9l0,20.2l14.5,7.2c8,4,14.6,7.3,14.7,7.3c0.1,0.1,0.2-9,0.2-20.1l0-20.2l-14.5-7.2c-8-4-14.6-7.3-14.7-7.3
	C490,309.7,489.9,318.7,489.9,329.9z M504.6,328l4.8,2.5l0.1,9.2c0,5.1,0,9.2-0.1,9.1c-0.1-0.1-2.4-1.2-5-2.5l-4.8-2.4v-9.2
	c0-5.1,0.1-9.2,0.1-9.2C499.8,325.5,502,326.6,504.6,328z"/>
<path d="M539,354.4v20.2l14.7,7.4l14.7,7.4v-20.2V349l-14.7-7.4l-14.7-7.4V354.4z M553.9,352.6l4.9,2.4v9.1c0,5-0.1,9.1-0.1,9.1
	c-0.1,0-2.3-1.1-5-2.4l-4.9-2.4v-9.1c0-5,0.1-9.1,0.1-9.1C549,350.2,551.2,351.3,553.9,352.6z"/>
<path d="M489.9,388.8V409l14.7,7.4l14.7,7.4v-20.2v-20.2l-14.7-7.4l-14.7-7.4V388.8z M504.7,387.1l4.9,2.4v9.1c0,6-0.1,9.1-0.3,9.1
	s-2.4-1.1-5-2.4l-4.7-2.4v-9.2c0-5.1,0.1-9.2,0.1-9.2S502.1,385.8,504.7,387.1z"/>
<path d="M539.1,413.5l0,20.2l14.5,7.2c7.9,4,14.6,7.3,14.7,7.3c0.1,0.1,0.2-9,0.2-20.1l0-20.2l-14.5-7.2c-8-4-14.6-7.3-14.7-7.3
	C539.1,393.3,539,402.3,539.1,413.5z M558.8,423.3c0,5.1-0.1,9.2-0.2,9.2c-0.1,0-2.3-1.1-4.9-2.4l-4.7-2.4l-0.1-9.3l-0.1-9.2l5,2.5
	l5,2.5V423.3z"/>
<path d="M489.9,447.9l0,20.2l7.7,3.8c4.2,2.1,10.8,5.4,14.7,7.4l7,3.6l0-20.3l0-20.3l-14.5-7.2c-8-4-14.6-7.3-14.7-7.3
	C490,427.7,489.9,436.8,489.9,447.9z M509.6,457.7c0,5.1-0.1,9.2-0.1,9.2s-2.3-1.1-5-2.4l-4.9-2.4v-9.2v-9.3l5,2.5l5,2.5V457.7z"/>
<path d="M539,472.6v20.3l1.6,0.7c0.9,0.4,7.5,3.6,14.7,7.3l13.1,6.6v-20.2V467l-14.7-7.4l-14.7-7.4V472.6z M553.9,470.7l4.9,2.4v9.2
	v9.3l-5-2.5l-5-2.5v-9.2c0-5.1,0.1-9.2,0.1-9.2C549,468.3,551.2,469.4,553.9,470.7z"/>
<path d="M595.7,384.5l0,20.2l14.5,7.2c8,4,14.6,7.3,14.7,7.3c0.1,0.1,0.2-9,0.2-20.1l0-20.2l-14.5-7.2c-8-4-14.6-7.3-14.7-7.3
	C595.8,364.3,595.7,373.3,595.7,384.5z M610.5,382.6l4.8,2.5l0.1,9.2c0,5.1,0,9.2-0.1,9.1c-0.1-0.1-2.4-1.2-5-2.5l-4.8-2.4v-9.2
	c0-5.1,0.1-9.2,0.1-9.2C605.6,380.1,607.8,381.2,610.5,382.6z"/>
<path d="M644.9,409v20.2l14.7,7.4l14.7,7.4v-20.2v-20.2l-14.7-7.4l-14.7-7.4V409z M659.7,407.3l4.9,2.4v9.1c0,5-0.1,9.1-0.1,9.1
	s-2.3-1.1-5-2.4l-4.9-2.4V414c0-5,0.1-9.1,0.1-9.1C654.8,404.8,657.1,405.9,659.7,407.3z"/>
<path d="M595.7,443.4v20.2l14.7,7.4l14.7,7.4v-20.2V438l-14.7-7.4l-14.7-7.4V443.4z M610.6,441.7l4.9,2.4v9.1c0,6-0.1,9.1-0.3,9.1
	c-0.2,0-2.4-1.1-5-2.4l-4.7-2.4v-9.2c0-5.1,0.1-9.2,0.1-9.2C605.7,439.3,607.9,440.4,610.6,441.7z"/>
<path d="M644.9,468.1l0,20.2l14.5,7.2c7.9,4,14.6,7.3,14.7,7.3s0.2-9,0.2-20.1l0-20.2l-14.5-7.2c-8-4-14.6-7.3-14.7-7.3
	C645,447.9,644.9,457,644.9,468.1z M664.6,477.9c0,5.1-0.1,9.2-0.2,9.2c-0.1,0-2.3-1.1-4.9-2.4l-4.7-2.4l-0.1-9.3l-0.1-9.2l5,2.5
	l5,2.5V477.9z"/>
<path d="M595.7,502.5l0,20.2l7.7,3.8c4.2,2.1,10.8,5.4,14.7,7.4l7,3.6l0-20.3l0-20.3l-14.5-7.2c-8-4-14.6-7.3-14.7-7.3
	C595.8,482.4,595.7,491.4,595.7,502.5z M615.4,512.4c0,5.1-0.1,9.2-0.1,9.2c-0.1,0-2.3-1.1-5-2.4l-4.9-2.4v-9.2v-9.3l5,2.5l5,2.5
	V512.4z"/>
<path d="M644.9,527.2v20.3l1.6,0.7c0.9,0.4,7.5,3.6,14.7,7.3l13.1,6.6v-20.2v-20.2l-14.7-7.4l-14.7-7.4V527.2z M659.7,525.3l4.9,2.4
	v9.2v9.3l-5-2.5l-5-2.5v-9.2c0-5.1,0.1-9.2,0.1-9.2C654.8,522.9,657.1,524,659.7,525.3z"/>
</svg>
