<?xml version="1.0" encoding="utf-8"?>
<!-- Generator: Adobe Illustrator 26.0.1, SVG Export Plug-In . SVG Version: 6.00 Build 0)  -->
<svg version="1.1" id="Layer_1" xmlns="http://www.w3.org/2000/svg" xmlns:xlink="http://www.w3.org/1999/xlink" x="0px" y="0px"
	 viewBox="0 0 944.1 698.1" style="enable-background:new 0 0 944.1 698.1;" xml:space="preserve">
<style type="text/css">
	.st0{fill:#2D87E8;}
	.st1{fill:#3F3D56;}
	.st2{fill:#F2F2F2;}
	.st3{fill:#2F2E41;}
	.st4{fill:#FFB8B8;}
	.st5{fill:#8985A8;}
</style>
<circle class="st0" cx="397" cy="273.1" r="130"/>
<path class="st1" d="M414,381.1c-72.2,0-131-58.8-131-131s58.8-131,131-131c72.2,0,131,58.8,131,131S486.2,381.1,414,381.1z
	 M414,121.1c-71.2,0-129,57.8-129,129s57.8,129,129,129s129-57.8,129-129c0,0,0,0,0,0C542.9,178.9,485.2,121.2,414,121.1L414,121.1z
	"/>
<path class="st1" d="M811,441H0V0h811V441z M2,439h807V2H2V439z"/>
<rect x="27" y="35" class="st2" width="178" height="18"/>
<rect x="294" y="35" class="st2" width="178" height="18"/>
<rect x="561" y="35" class="st2" width="178" height="18"/>
<path class="st1" d="M217,45H37V25h180V45z M39,43h176V27H39V43z"/>
<path class="st1" d="M484,45H304V25h180V45z M306,43h176V27H306V43z"/>
<path class="st1" d="M751,45H571V25h180V45z M573,43h176V27H573V43z"/>
<rect x="116.5" y="682.7" class="st3" width="827.6" height="2.6"/>
<polygon class="st1" points="393.5,483.5 456.5,361.5 473.5,371.5 401.5,488.5 "/>
<path class="st0" d="M357,510c0,0,11.6,9.1,12.9-10.4c0.3-6.3,3.3-12.1,8.1-16.1c5.3-4.2,12.8-7.1,21.9-1.5c8.1,5,9.9,12.1,9.5,18.5
	c-0.8,9.3-6.1,17.6-14.2,22.3c-9,5.4-23.3,9.4-38.2-3.8C357,519,348,509,357,510z"/>
<circle class="st4" cx="468.4" cy="196.8" r="24.3"/>
<path class="st4" d="M455.6,208.3c0,0,6.4,33.2,3.8,39.6s35.8-2.6,35.8-2.6s-7.7-33.2-6.4-40.9S455.6,208.3,455.6,208.3z"/>
<polygon class="st4" points="413.5,323.2 416,357.7 428.7,411.9 432.6,426.7 439,403.7 432.6,351.3 430.5,327.7 "/>
<path class="st4" d="M547.6,318.1v35.8c0,0-3.8,46-11.5,57.5c-7.7,11.5-10.2-46-10.2-46l6-42.1L547.6,318.1z"/>
<path class="st3" d="M433.9,429.2c0,0-6.4,7.7-1.3,85.6s-2.6,134.1,14,134.1c0,0-5.1,16.6,8.9,17.9s20.4,2.6,21.7-1.3
	s3.8-21.7,0-21.7c0,0,0,5.1,2.6-15.3s2.6-117.5,8.9-130.3l20.4,47.3c0,0,0,21.7,3.8,31.9c3.8,10.2,10.2,69,10.2,69l-1.3,8.9
	c0,0,30.7,5.1,31.9,0s1.3-12.8,0-15.3c-1.3-2.6-1.3-2.6,1.3-7.7s2.6-8.9,1.3-12.8c-1.3-3.8-1.3-86.8-1.3-86.8s-2.6-100.9-17.9-106
	C522,421.6,433.9,429.2,433.9,429.2z"/>
<path class="st3" d="M450.5,656.6l-10.2,17.9c0,0-16-5.7-12.8,8.9c27.5,1.9,46.6-0.6,46.6-0.6s6.4,2.6,7.7-1.3s-3.2-17.2-7-17.2
	S450.5,656.6,450.5,656.6z"/>
<path class="st3" d="M524.6,651.4c0,0-10.2,23-6.4,24.3c3.8,1.3,38.3,6.4,40.9,7.7s15.3,2.6,16.6-5.1s-6.4-10.2-6.4-10.2
	s-14-2.6-17.9-15.3S524.6,651.4,524.6,651.4z"/>
<path class="st5" d="M497.8,241.5c0,0-34.5-6.4-42.1,0S416,260.6,416,267s16.6,69,16.6,69s-8.9,94.5,0,97.1s24.3-5.1,42.1,3.8
	s69-7.7,69-7.7s-19.2-81.7-14-97.1c5.1-15.3,8.9-67.7,8.9-67.7S516.9,241.5,497.8,241.5z"/>
<path class="st5" d="M425,263.2l-8.9,2.6c0,0-19.2,60-11.5,62.6s29.4,7.7,31.9,7.7S425,263.2,425,263.2z"/>
<path class="st5" d="M518.2,256.8l20.4,7.7c0,0,26.8,49.8,20.4,56.2c-6.4,6.4-34.5,12.8-34.5,12.8L518.2,256.8z"/>
<path class="st3" d="M467.7,166.8c-2-0.4-4.1-0.3-6.1,0.3c-1.6,0.7-3,1.7-4.3,2.8c-2.3,1.8-4.8,3.5-7.4,4.9c-2.1,1.1-4.3,2.2-5.7,4
	c-0.7,0.9-1.2,2-1.6,3.1c-2.5,6.4-3.2,13.3-1.9,20c0.1,1,0.4,1.9,0.9,2.7c1.3,2.4,4.3,3.4,6.7,4.7c4.7,2.4,8.2,6.5,12.1,10.2
	c1.4,1.4,3,2.7,4.8,3.7c5.5,3,12.2,2,18.4,1c1.8,0,3.3-1.5,3.3-3.3c0,0,0,0,0,0l4.9-21.9c0.9-3.2,1.3-6.6,1.2-9.9
	c-0.3-5.3-3.2-12.7-7.1-16.4C481.2,168.1,473.6,167.4,467.7,166.8z"/>
<ellipse class="st0" cx="368" cy="681" rx="35" ry="2"/>
<ellipse class="st0" cx="360" cy="685" rx="35" ry="2"/>
<ellipse class="st0" cx="325" cy="673" rx="19" ry="1.1"/>
<ellipse class="st0" cx="393" cy="697" rx="19" ry="1.1"/>
</svg>
