<?xml version="1.0" encoding="utf-8"?>
<!-- Generator: Adobe Illustrator 26.0.1, SVG Export Plug-In . SVG Version: 6.00 Build 0)  -->
<svg version="1.1" id="Layer_1" xmlns="http://www.w3.org/2000/svg" xmlns:xlink="http://www.w3.org/1999/xlink" x="0px" y="0px"
	 viewBox="0 0 837.6 630.5" style="enable-background:new 0 0 837.6 630.5;" xml:space="preserve">
<style type="text/css">
	.st0{fill:#FFFFFF;stroke:#000000;stroke-miterlimit:10;}
	.st1{fill:#F2F2F2;}
	.st2{fill:none;stroke:#000000;stroke-width:2;stroke-miterlimit:10;}
	.st3{fill:#FF6584;}
	.st4{fill:#2D87E8;}
	.st5{fill:#3F3D56;}
	.st6{opacity:0.1;enable-background:new    ;}
	.st7{fill:#2F2E41;}
	.st8{fill:#FFFFFF;}
</style>
<rect x="4.9" y="6" class="st0" width="831.1" height="603.7"/>
<rect x="17.2" y="78.2" class="st1" width="28.7" height="231.4"/>
<path class="st2" d="M67.8,314.9H34.6c-4.4,0-8-3.6-8-8V77.7c0-4.4,3.6-8,8-8h33.2c4.4,0,8,3.6,8,8v229.2
	C75.8,311.3,72.3,314.9,67.8,314.9z"/>
<ellipse class="st2" cx="51.2" cy="95.7" rx="17.5" ry="17.5"/>
<ellipse class="st2" cx="51.2" cy="141.8" rx="17.5" ry="17.5"/>
<ellipse class="st2" cx="51.2" cy="186.2" rx="17.5" ry="17.5"/>
<ellipse class="st2" cx="51.2" cy="230.7" rx="17.5" ry="17.5"/>
<ellipse class="st2" cx="51.2" cy="275.2" rx="17.5" ry="17.5"/>
<rect x="771.1" y="72.1" class="st1" width="28.7" height="231.4"/>
<path class="st2" d="M784.8,308.8h-33.2c-4.4,0-8-3.6-8-8V71.7c0-4.4,3.6-8,8-8h33.2c4.4,0,8,3.6,8,8v229.2
	C792.8,305.3,789.2,308.8,784.8,308.8z"/>
<ellipse class="st2" cx="768.1" cy="89.6" rx="17.5" ry="17.5"/>
<ellipse class="st2" cx="768.1" cy="135.7" rx="17.5" ry="17.5"/>
<ellipse class="st2" cx="768.1" cy="180.2" rx="17.5" ry="17.5"/>
<ellipse class="st2" cx="768.1" cy="224.7" rx="17.5" ry="17.5"/>
<ellipse class="st2" cx="768.1" cy="269.1" rx="17.5" ry="17.5"/>
<circle class="st3" cx="207.6" cy="220.8" r="55"/>
<path class="st4" d="M548.6,283.1c0,108.4-64.4,146.2-143.9,146.2s-143.9-37.8-143.9-146.2S404.7,36.9,404.7,36.9
	S548.6,174.7,548.6,283.1z"/>
<polygon class="st5" points="399.5,412.7 401,322 462.3,209.8 401.2,307.8 401.9,267 444.1,185.8 402,256.2 402,256.2 403.2,182.9 
	448.5,118.2 403.4,171.3 404.2,36.9 399.5,214.9 399.9,207.5 353.8,137.1 399.1,221.6 394.8,303.5 394.7,301.4 341.7,227.2 
	394.5,309.1 394,319.3 393.9,319.5 394,320.3 383.1,528.1 397.6,528.1 399.4,420.8 452.1,339.2 "/>
<path class="st5" d="M687.5,385.4c0,108.4-64.4,146.2-143.9,146.2s-143.9-37.8-143.9-146.2s143.9-246.2,143.9-246.2
	S687.5,277.1,687.5,385.4z"/>
<polygon class="st1" points="538.3,515 539.8,424.4 601.1,312.2 540,410.1 540.7,369.4 583,288.2 540.9,358.6 540.9,358.6 
	542.1,285.2 587.3,220.6 542.2,273.7 543,139.2 538.3,317.2 538.7,309.9 492.7,239.5 538,324 533.7,405.9 533.5,403.7 480.5,329.6 
	533.4,411.4 532.8,421.6 532.7,421.8 532.8,422.6 521.9,630.5 536.4,630.5 538.2,523.1 591,441.5 "/>
<path class="st5" d="M416.9,385.4c0,108.4-64.4,146.2-143.9,146.2s-143.9-37.8-143.9-146.2S273,139.2,273,139.2
	S416.9,277.1,416.9,385.4z"/>
<polygon class="st1" points="267.8,515 269.2,424.4 330.6,312.2 269.5,410.1 270.1,369.4 312.4,288.2 270.3,358.6 270.3,358.6 
	271.5,285.2 316.7,220.6 271.7,273.7 272.4,139.2 267.7,317.2 268.1,309.9 222.1,239.5 267.4,324 263.1,405.9 263,403.7 
	209.9,329.6 262.8,411.4 262.3,421.6 262.2,421.8 262.2,422.6 251.3,630.5 265.9,630.5 267.6,523.1 320.4,441.5 "/>
<polygon class="st1" points="651.6,501.8 651.6,628.5 165.2,628.5 165.2,501.8 408.4,375.1 408.9,375.4 "/>
<polygon class="st6" points="651.6,501.8 651.6,628.5 408.9,628.5 408.9,375.4 "/>
<polygon class="st5" points="387.6,452.6 369.4,459.5 369.4,432.4 387.6,424.4 "/>
<polygon class="st5" points="186,528.6 179.9,530.9 179.9,514.5 186,511.8 "/>
<polygon class="st5" points="207.3,521.5 200.2,524.2 200.2,506.3 207.3,503.2 "/>
<polygon class="st5" points="230.6,512.4 222.5,515.5 222.5,496.2 230.6,492.6 "/>
<polygon class="st5" points="258.9,501.3 248.8,505.1 248.8,485.1 258.9,480.6 "/>
<polygon class="st5" points="293.4,488.1 281.2,492.7 281.2,470.9 293.4,465.5 "/>
<polygon class="st5" points="334.9,472.9 320.8,478.3 320.8,453.7 334.9,447.4 "/>
<polygon class="st5" points="186,562.1 179.9,563.6 179.9,546.9 186,545 "/>
<polygon class="st5" points="207.3,557 200.2,558.8 200.2,540.8 207.3,538.6 "/>
<polygon class="st5" points="230.6,550.9 222.5,553 222.5,533.7 230.6,531.2 "/>
<polygon class="st5" points="258.9,543.8 248.8,546.4 248.8,525.6 258.9,522.4 "/>
<polygon class="st5" points="293.4,534.7 281.2,537.8 281.2,515.5 293.4,511.6 "/>
<polygon class="st5" points="334.9,524.6 319.7,528.4 319.7,503.3 334.9,498.5 "/>
<polygon class="st5" points="387.6,511.4 369.4,516 369.4,488.1 387.6,482.4 "/>
<polygon class="st5" points="387.6,569.2 369.4,571.5 369.4,543.8 387.6,540.4 "/>
<polygon class="st5" points="186,594.5 179.9,595.3 179.9,579.3 186,578.2 "/>
<polygon class="st5" points="207.3,592.5 200.2,593.4 200.2,576.3 207.3,574.9 "/>
<polygon class="st5" points="230.6,589.4 222.5,590.5 222.5,571.2 230.6,569.7 "/>
<polygon class="st5" points="258.9,585.4 248.8,586.7 248.8,566.1 258.9,564.2 "/>
<polygon class="st5" points="293.4,581.3 281.2,582.9 281.2,560.1 293.4,557.7 "/>
<polygon class="st5" points="334.9,576.3 319.7,578.2 319.7,553 334.9,550.1 "/>
<polygon class="st5" points="631.9,528.6 637.9,530.9 637.9,514.5 631.9,511.8 "/>
<polygon class="st5" points="610.6,521.5 617.7,524.2 617.7,506.3 610.6,503.2 "/>
<polygon class="st5" points="587.3,512.4 595.4,515.5 595.4,496.2 587.3,492.6 "/>
<polygon class="st5" points="558.9,501.3 569,505.1 569,485.1 558.9,480.6 "/>
<polygon class="st5" points="524.4,488.1 536.6,492.7 536.6,470.9 524.4,465.5 "/>
<polygon class="st5" points="482.9,472.9 497.1,478.3 497.1,453.7 482.9,447.4 "/>
<polygon class="st5" points="631.9,562.1 637.9,563.6 637.9,546.9 631.9,545 "/>
<polygon class="st5" points="610.6,557 617.7,558.8 617.7,540.8 610.6,538.6 "/>
<polygon class="st5" points="587.3,550.9 595.4,553 595.4,533.7 587.3,531.2 "/>
<polygon class="st5" points="558.9,543.8 569,546.4 569,525.6 558.9,522.4 "/>
<polygon class="st5" points="524.4,534.7 536.6,537.8 536.6,515.5 524.4,511.6 "/>
<polygon class="st5" points="482.9,524.6 498.1,528.4 498.1,503.3 482.9,498.5 "/>
<polygon class="st5" points="430.2,511.4 448.4,516 448.4,488.1 430.2,482.4 "/>
<polygon class="st5" points="430.2,569.2 448.4,571.5 448.4,543.8 430.2,540.4 "/>
<polygon class="st5" points="631.9,594.5 637.9,595.3 637.9,579.3 631.9,578.2 "/>
<polygon class="st5" points="610.6,592.5 617.7,593.4 617.7,576.3 610.6,574.9 "/>
<polygon class="st5" points="587.3,589.4 595.4,590.5 595.4,571.2 587.3,569.7 "/>
<polygon class="st5" points="558.9,585.4 569,586.7 569,566.1 558.9,564.2 "/>
<polygon class="st5" points="524.4,581.3 536.6,582.9 536.6,560.1 524.4,557.7 "/>
<polygon class="st5" points="482.9,576.3 498.1,578.2 498.1,553 482.9,550.1 "/>
<polygon class="st5" points="447.4,459.7 429.2,452.9 429.2,424.3 447.4,432.3 "/>
<rect x="617.2" y="605.9" class="st7" width="1.5" height="23.8"/>
<rect x="635.2" y="612.4" class="st7" width="1.1" height="16.9"/>
<rect x="650.9" y="614.4" class="st7" width="0.9" height="14.8"/>
<polygon class="st5" points="575.1,598.4 575.1,629 555.4,628.9 535.6,628.9 535.6,594.5 555.4,596.4 "/>
<polygon class="st5" points="242.7,629 282.3,628.9 282.3,594.5 242.7,598.4 "/>
<rect x="-2" y="628" class="st7" width="885.5" height="2"/>
<polygon class="st6" points="575.1,598.4 575.1,629 555.4,628.9 555.4,596.4 "/>
<rect x="404.4" y="601.1" class="st7" width="2" height="28.4"/>
<path class="st4" d="M417.1,591c0,9.9-5.3,18.2-11.7,18.5c-6.2,0.3-11.1-7.2-11.1-16.6s12.1-35.4,12.1-35.4S417.1,581.1,417.1,591z"
	/>
<rect x="166.7" y="610.2" class="st7" width="1.2" height="16.9"/>
<path class="st4" d="M174.3,604.2c0,5.9-3.2,10.9-7,11c-3.7,0.2-6.6-4.3-6.6-9.9s7.2-21.1,7.2-21.1S174.3,598.2,174.3,604.2z"/>
<path class="st4" d="M626.1,606.8c0,5.6-3.6,10-8.2,9.8c-4.9-0.2-9.1-5.5-9.1-11.8s9.1-22,9.1-22S626.1,601.2,626.1,606.8z"/>
<path class="st8" d="M641.5,613c0,4-2.5,7.1-5.8,7c-3.5-0.2-6.5-3.9-6.5-8.4s6.5-15.6,6.5-15.6S641.5,609,641.5,613z"/>
<path class="st8" d="M656.4,615c0,3.5-2.2,6.3-5.1,6.1c-3.1-0.1-5.7-3.4-5.7-7.4s5.7-13.7,5.7-13.7S656.4,611.5,656.4,615z"/>
</svg>
