<?xml version="1.0" encoding="utf-8"?>
<!-- Generator: Adobe Illustrator 26.0.1, SVG Export Plug-In . SVG Version: 6.00 Build 0)  -->
<svg version="1.1" id="Layer_1" xmlns="http://www.w3.org/2000/svg" xmlns:xlink="http://www.w3.org/1999/xlink" x="0px" y="0px"
	 viewBox="0 0 848 701.9" style="enable-background:new 0 0 848 701.9;" xml:space="preserve">
<style type="text/css">
	.st0{fill:#FFFFFF;stroke:#000000;stroke-miterlimit:10;}
	.st1{fill:#F2F2F2;}
	.st2{fill:none;stroke:#000000;stroke-width:2;stroke-miterlimit:10;}
	.st3{fill:#FF6584;}
	.st4{fill:#2D87E8;}
	.st5{fill:#3F3D56;}
	.st6{opacity:0.1;enable-background:new    ;}
	.st7{fill:#2F2E41;}
	.st8{fill:#FFFFFF;}
</style>
<rect x="4.9" y="37.4" class="st0" width="831.1" height="603.7"/>
<rect x="17.2" y="109.6" class="st1" width="28.7" height="231.4"/>
<path class="st2" d="M67.8,346.3H34.6c-4.4,0-8-3.6-8-8V109.1c0-4.4,3.6-8,8-8h33.2c4.4,0,8,3.6,8,8v229.2
	C75.8,342.8,72.3,346.3,67.8,346.3z"/>
<path class="st2" d="M816,613.9H685.3c-2.9,0-5.3-2.4-5.3-5.3v-27c0-2.9,2.4-5.3,5.3-5.3H816c2.9,0,5.3,2.4,5.3,5.3v27
	C821.3,611.5,818.9,613.9,816,613.9z"/>
<ellipse class="st2" cx="51.2" cy="127.1" rx="17.5" ry="17.5"/>
<ellipse class="st2" cx="51.2" cy="173.2" rx="17.5" ry="17.5"/>
<ellipse class="st2" cx="51.2" cy="217.7" rx="17.5" ry="17.5"/>
<ellipse class="st2" cx="51.2" cy="262.1" rx="17.5" ry="17.5"/>
<ellipse class="st2" cx="51.2" cy="306.6" rx="17.5" ry="17.5"/>
<rect x="771.1" y="103.6" class="st1" width="28.7" height="231.4"/>
<path class="st2" d="M784.8,340.3h-33.2c-4.4,0-8-3.6-8-8V103.1c0-4.4,3.6-8,8-8h33.2c4.4,0,8,3.6,8,8v229.2
	C792.8,336.7,789.2,340.3,784.8,340.3z"/>
<ellipse class="st2" cx="768.1" cy="121.1" rx="17.5" ry="17.5"/>
<ellipse class="st2" cx="768.1" cy="167.2" rx="17.5" ry="17.5"/>
<ellipse class="st2" cx="768.1" cy="211.6" rx="17.5" ry="17.5"/>
<ellipse class="st2" cx="768.1" cy="256.1" rx="17.5" ry="17.5"/>
<ellipse class="st2" cx="768.1" cy="300.6" rx="17.5" ry="17.5"/>
<circle class="st3" cx="207.6" cy="252.2" r="55"/>
<path class="st4" d="M548.6,314.5c0,108.4-64.4,146.2-143.9,146.2s-143.9-37.8-143.9-146.2S404.7,68.3,404.7,68.3
	S548.6,206.2,548.6,314.5z"/>
<polygon class="st5" points="399.5,444.1 401,353.5 462.3,241.3 401.2,339.2 401.9,298.4 444.1,217.3 402,287.7 402,287.7 
	403.2,214.3 448.5,149.7 403.4,202.8 404.2,68.3 399.5,246.3 399.9,239 353.8,168.5 399.1,253.1 394.8,335 394.7,332.8 341.7,258.7 
	394.5,340.5 394,350.7 393.9,350.9 394,351.7 383.1,559.6 397.6,559.6 399.4,452.2 452.1,370.6 "/>
<path class="st5" d="M687.5,416.9c0,108.4-64.4,146.2-143.9,146.2s-143.9-37.8-143.9-146.2s143.9-246.2,143.9-246.2
	S687.5,308.5,687.5,416.9z"/>
<polygon class="st1" points="538.3,546.5 539.8,455.8 601.1,343.6 540,441.6 540.7,400.8 583,319.6 540.9,390 540.9,390 
	542.1,316.7 587.3,252 542.2,305.1 543,170.6 538.3,348.7 538.7,341.3 492.7,270.9 538,355.4 533.7,437.3 533.5,435.2 480.5,361 
	533.4,442.9 532.8,453.1 532.7,453.2 532.8,454.1 521.9,661.9 536.4,661.9 538.2,554.6 591,473 "/>
<path class="st5" d="M416.9,416.9c0,108.4-64.4,146.2-143.9,146.2s-143.9-37.8-143.9-146.2S273,170.6,273,170.6
	S416.9,308.5,416.9,416.9z"/>
<polygon class="st1" points="267.8,546.5 269.2,455.8 330.6,343.6 269.5,441.6 270.1,400.8 312.4,319.6 270.3,390 270.3,390 
	271.5,316.7 316.7,252 271.7,305.1 272.4,170.6 267.7,348.7 268.1,341.3 222.1,270.9 267.4,355.4 263.1,437.3 263,435.2 209.9,361 
	262.8,442.9 262.3,453.1 262.2,453.2 262.2,454.1 251.3,661.9 265.9,661.9 267.6,554.6 320.4,473 "/>
<polygon class="st1" points="651.6,533.2 651.6,659.9 165.2,659.9 165.2,533.2 408.4,406.6 408.9,406.8 "/>
<polygon class="st6" points="651.6,533.2 651.6,659.9 408.9,659.9 408.9,406.8 "/>
<polygon class="st5" points="387.6,484.1 369.4,491 369.4,463.8 387.6,455.8 "/>
<polygon class="st5" points="186,560.1 179.9,562.4 179.9,545.9 186,543.2 "/>
<polygon class="st5" points="207.3,553 200.2,555.7 200.2,537.8 207.3,534.7 "/>
<polygon class="st5" points="230.6,543.9 222.5,546.9 222.5,527.7 230.6,524.1 "/>
<polygon class="st5" points="258.9,532.7 248.8,536.6 248.8,516.5 258.9,512.1 "/>
<polygon class="st5" points="293.4,519.6 281.2,524.1 281.2,502.3 293.4,497 "/>
<polygon class="st5" points="334.9,504.4 320.8,509.7 320.8,485.1 334.9,478.9 "/>
<polygon class="st5" points="186,593.5 179.9,595.1 179.9,578.3 186,576.4 "/>
<polygon class="st5" points="207.3,588.5 200.2,590.2 200.2,572.2 207.3,570 "/>
<polygon class="st5" points="230.6,582.4 222.5,584.4 222.5,565.2 230.6,562.6 "/>
<polygon class="st5" points="258.9,575.3 248.8,577.8 248.8,557 258.9,553.9 "/>
<polygon class="st5" points="293.4,566.2 281.2,569.2 281.2,546.9 293.4,543.1 "/>
<polygon class="st5" points="334.9,556 319.7,559.9 319.7,534.8 334.9,530 "/>
<polygon class="st5" points="387.6,542.9 369.4,547.4 369.4,519.6 387.6,513.8 "/>
<polygon class="st5" points="387.6,600.6 369.4,602.9 369.4,575.3 387.6,571.8 "/>
<polygon class="st5" points="186,626 179.9,626.7 179.9,610.8 186,609.6 "/>
<polygon class="st5" points="207.3,623.9 200.2,624.8 200.2,607.7 207.3,606.4 "/>
<polygon class="st5" points="230.6,620.9 222.5,621.9 222.5,602.7 230.6,601.1 "/>
<polygon class="st5" points="258.9,616.8 248.8,618.1 248.8,597.6 258.9,595.7 "/>
<polygon class="st5" points="293.4,612.8 281.2,614.3 281.2,591.5 293.4,589.2 "/>
<polygon class="st5" points="334.9,607.7 319.7,609.6 319.7,584.4 334.9,581.5 "/>
<polygon class="st5" points="631.9,560.1 637.9,562.4 637.9,545.9 631.9,543.2 "/>
<polygon class="st5" points="610.6,553 617.7,555.7 617.7,537.8 610.6,534.7 "/>
<polygon class="st5" points="587.3,543.9 595.4,546.9 595.4,527.7 587.3,524.1 "/>
<polygon class="st5" points="558.9,532.7 569,536.6 569,516.5 558.9,512.1 "/>
<polygon class="st5" points="524.4,519.6 536.6,524.1 536.6,502.3 524.4,497 "/>
<polygon class="st5" points="482.9,504.4 497.1,509.7 497.1,485.1 482.9,478.9 "/>
<polygon class="st5" points="631.9,593.5 637.9,595.1 637.9,578.3 631.9,576.4 "/>
<polygon class="st5" points="610.6,588.5 617.7,590.2 617.7,572.2 610.6,570 "/>
<polygon class="st5" points="587.3,582.4 595.4,584.4 595.4,565.2 587.3,562.6 "/>
<polygon class="st5" points="558.9,575.3 569,577.8 569,557 558.9,553.9 "/>
<polygon class="st5" points="524.4,566.2 536.6,569.2 536.6,546.9 524.4,543.1 "/>
<polygon class="st5" points="482.9,556 498.1,559.9 498.1,534.8 482.9,530 "/>
<polygon class="st5" points="430.2,542.9 448.4,547.4 448.4,519.6 430.2,513.8 "/>
<polygon class="st5" points="430.2,600.6 448.4,602.9 448.4,575.3 430.2,571.8 "/>
<polygon class="st5" points="631.9,626 637.9,626.7 637.9,610.8 631.9,609.6 "/>
<polygon class="st5" points="610.6,623.9 617.7,624.8 617.7,607.7 610.6,606.4 "/>
<polygon class="st5" points="587.3,620.9 595.4,621.9 595.4,602.7 587.3,601.1 "/>
<polygon class="st5" points="558.9,616.8 569,618.1 569,597.6 558.9,595.7 "/>
<polygon class="st5" points="524.4,612.8 536.6,614.3 536.6,591.5 524.4,589.2 "/>
<polygon class="st5" points="482.9,607.7 498.1,609.6 498.1,584.4 482.9,581.5 "/>
<polygon class="st5" points="447.4,491.2 429.2,484.3 429.2,455.7 447.4,463.7 "/>
<rect x="617.2" y="637.3" class="st7" width="1.5" height="23.8"/>
<rect x="635.2" y="643.8" class="st7" width="1.1" height="16.9"/>
<rect x="650.9" y="645.9" class="st7" width="0.9" height="14.8"/>
<polygon class="st5" points="575.1,629.8 575.1,660.4 555.4,660.4 535.6,660.4 535.6,626 555.4,627.9 "/>
<polygon class="st5" points="242.7,660.4 282.3,660.3 282.3,626 242.7,629.8 "/>
<rect x="-2" y="659.4" class="st7" width="885.5" height="2"/>
<polygon class="st6" points="575.1,629.8 575.1,660.4 555.4,660.4 555.4,627.9 "/>
<rect x="404.4" y="632.5" class="st7" width="2" height="28.4"/>
<path class="st4" d="M417.1,622.4c0,9.9-5.3,18.2-11.7,18.5c-6.2,0.3-11.1-7.2-11.1-16.6s12.1-35.4,12.1-35.4
	S417.1,612.5,417.1,622.4z"/>
<rect x="166.7" y="641.6" class="st7" width="1.2" height="16.9"/>
<path class="st4" d="M174.3,635.6c0,5.9-3.2,10.9-7,11c-3.7,0.2-6.6-4.3-6.6-9.9c0-5.6,7.2-21.1,7.2-21.1S174.3,629.7,174.3,635.6z"
	/>
<path class="st4" d="M626.1,638.3c0,5.6-3.6,10-8.2,9.8c-4.9-0.2-9.1-5.5-9.1-11.8s9.1-22,9.1-22S626.1,632.6,626.1,638.3z"/>
<path class="st8" d="M641.5,644.5c0,4-2.5,7.1-5.8,7c-3.5-0.2-6.5-3.9-6.5-8.4c0-4.5,6.5-15.6,6.5-15.6S641.5,640.5,641.5,644.5z"/>
<path class="st8" d="M656.4,646.5c0,3.5-2.2,6.3-5.1,6.1c-3.1-0.1-5.7-3.4-5.7-7.4s5.7-13.7,5.7-13.7S656.4,643,656.4,646.5z"/>
</svg>
