<?xml version="1.0" standalone="no"?>
<!DOCTYPE svg PUBLIC "-//W3C//DTD SVG 1.1//EN" "http://www.w3.org/Graphics/SVG/1.1/DTD/svg11.dtd" >
<svg xmlns="http://www.w3.org/2000/svg">
<metadata>Generated by IcoMoon</metadata>
<defs>
<font id="wwzr" horiz-adv-x="1024">
<font-face units-per-em="1024" ascent="896" descent="-128" />
<missing-glyph horiz-adv-x="1024" />
<glyph unicode="&#x20;" d="" />
<glyph unicode="&#xe000;" glyph-name="eye2" d="M512 768q69.667 0 135.5-21.167t115.5-55 93.5-74.833 73.667-82 51.667-74.833 32.167-54.833l10-21.333q-2.333-5-6.333-13.5t-18.833-34.667-31.667-51.667-44.333-60-56.833-64.333-69.5-60.167-82.333-51.5-94.833-34.667-107.333-13.5q-69.667 0-135.5 21.167t-115.5 54.833-93.5 74.333-73.667 81.5-51.667 74.5-32.167 55l-10 21q2.333 5 6.333 13.5t18.833 34.833 31.667 51.833 44.333 60.333 56.833 64.667 69.5 60.333 82.333 51.833 94.833 34.833 107.333 13.5zM512 682.667q-46.667 0-91.667-12.333t-81.167-31.833-70.667-47.167-59.667-54.5-48.833-57.667-37.667-52.833-26.333-44q12.333-21.667 26.333-43.5t37.667-52.333 48.833-57 59.667-53.833 70.667-46.667 81.167-31.5 91.667-12.167 91.667 12.333 81.167 31.667 70.667 46.833 59.667 54.167 48.833 57.333 37.667 52.667 26.333 43.667q-12.333 21.667-26.333 43.667t-37.667 52.667-48.833 57.333-59.667 54.167-70.667 46.833-81.167 31.667-91.667 12.333zM512 554.667q70.667 0 120.667-50t50-120.667-50-120.667-120.667-50-120.667 50-50 120.667 50 120.667 120.667 50zM512 469.333q-35.333 0-60.333-25t-25-60.333 25-60.333 60.333-25 60.333 25 25 60.333-25 60.333-60.333 25z" />
<glyph unicode="&#xe001;" glyph-name="paper-clip" d="M674 896q41.667 0 80-15.667 40-16 70.667-46.667 31-31.333 46.667-70.333 15.333-37.667 15.333-80t-15.333-80q-15.667-39-46.667-70.333l-392.667-392.667q-18-18-42.667-28.333-24-9.333-48-9.333t-48 9.333q-24.667 10.333-42.667 28.333-18.667 18.667-28 42.333-9.333 22.667-9.333 48 0 25.667 9.333 48.333 9.333 23.333 28 42.333l362.333 362q12.667 12.667 30.333 12.667 17.333 0 30-12.667t12.667-30q0-17.667-12.667-30.333l-362.333-362q-12.333-12.333-12.333-30.333 0-17.667 12.333-30 13.333-12.667 30.333-12.667t30.333 12.667l392.667 392.667q37 37 37 90t-37 90q-38 37.333-90.333 37.333-52.667 0-90-37.333l-393.667-391.667q-30.667-30.667-46.667-70.667-15.667-38.333-15.667-80.333 0-41.333 15.667-80.333 16-39.667 46.667-70.333 31.667-31.333 70.667-47t80.333-15.667 80.333 15.667 70.667 47l392 392q12.667 12.667 30.333 12.667 17.333 0 30-12.667t12.667-30q0-17.667-12.667-30.333l-392-392q-43-43-99-65.667-53.333-22-112.333-22-58.667 0-112.333 22-56 22.667-99 65.667-42.667 42.667-65.333 98.667-22 54-22 112.333 0 58.667 22 112.333 22.333 55.333 65.333 99h0.333l393.333 391.667q30.667 30.667 70.333 46.667 39 15.667 80 15.667z" />
<glyph unicode="&#xe003;" glyph-name="toggle" d="M341.333 725.333h341.333q69.333 0 132.5-27t109-72.833 72.833-109 27-132.5-27-132.5-72.833-109-109-72.833-132.5-27h-341.333q-69.333 0-132.5 27t-109 72.833-72.833 109-27 132.5 27 132.5 72.833 109 109 72.833 132.5 27zM341.333 554.667q70.667 0 120.667-50t50-120.667-50-120.667-120.667-50-120.667 50-50 120.667 50 120.667 120.667 50zM341.333 469.333q-35.333 0-60.333-25t-25-60.333 25-60.333 60.333-25 60.333 25 25 60.333-25 60.333-60.333 25zM682.667 640h-341.333q-69.667 0-128.5-34.333t-93.167-93.167-34.333-128.5 34.333-128.5 93.167-93.167 128.5-34.333h341.333q69.667 0 128.5 34.333t93.167 93.167 34.333 128.5-34.333 128.5-93.167 93.167-128.5 34.333z" />
<glyph unicode="&#xe018;" glyph-name="video" d="M128 682.667h469.333q53 0 90.5-37.5t37.5-90.5v-77.667l298.667 163v-512l-298.667 163v-77.667q0-53-37.5-90.5t-90.5-37.5h-469.333q-53 0-90.5 37.5t-37.5 90.5v341.333q0 53 37.5 90.5t90.5 37.5zM597.333 597.333h-469.333q-17.667 0-30.167-12.5t-12.5-30.167v-341.333q0-17.667 12.5-30.167t30.167-12.5h469.333q17.667 0 30.167 12.5t12.5 30.167v341.333q0 17.667-12.5 30.167t-30.167 12.5zM938.667 271.667v224.667l-205.667-112.333z" />
<glyph unicode="&#xe01c;" glyph-name="edit" d="M48-128h928c26.464 0 48 21.536 48 48v928c0 26.464-21.536 48-48 48h-928c-26.464 0-48-21.536-48-48v-928c0-26.464 21.536-48 48-48zM32 848c0 8.832 7.2 16 16 16h928c8.8 0 16-7.168 16-16v-928c0-8.832-7.2-16-16-16h-928c-8.8 0-16 7.168-16 16v928zM128-15.328c1.536 0 3.072 0.224 4.576 0.672l320 95.328c2.592 0.768 4.928 2.176 6.816 4.064l322.88 326.56c0.736 0.768 1.12 1.696 1.664 2.56l117.056 117.056c19.424 19.424 19.424 51.040 0 70.496l-167.552 167.488c-19.424 19.424-51.040 19.456-70.464 0l-119.648-119.648c-0.768-0.768-1.152-1.728-1.728-2.592l-323.776-323.808c-1.792-1.792-3.136-3.968-3.904-6.368l-101.12-310.88c-1.856-5.664-0.384-11.872 3.744-16.128 3.040-3.104 7.2-4.8 11.456-4.8zM555.488 615.328l33.28-33.28-272.736-274.016-55.264 12.544 294.72 294.752zM336 282.72l275.424 276.672 77.888-77.888-279.84-273.504h-73.472v74.72zM748.32 422.496l-295.872-299.264-18.432 63.968 277.888 271.648 36.416-36.352zM239.776 292.512l64.224-14.592v-85.92c0-8.832 7.168-16 16-16h83.968l20.256-70.4-271.584-80.896 87.136 267.808zM685.6 746.272c6.976 6.944 18.304 6.912 25.216 0l167.52-167.52c6.976-6.944 6.976-18.272 0-25.248l-107.904-107.904-192.736 192.736 107.904 107.936z" />
<glyph unicode="&#xe026;" glyph-name="puzzle" horiz-adv-x="1120" d="M641.344 770.976c0 62.24-49.888 125.024-161.344 125.024-98.144 0-164.128-50.24-164.128-125.024 0-43.648 17.664-63.552 29.344-76.736 6.176-6.944 8.672-10.080 8.672-13.216 0-5.184 0-8.32-17.856-9.024h-195.136c-75.040 0-140.896-59.808-140.896-128v-119.424c1.216-30.208 18.272-48.992 44.544-48.992 14.944 0 26.016 8.544 36.768 16.832 14.4 11.040 30.688 23.584 62.688 23.584 54.272 0 112-44.864 112-128 0-84.128-58.496-142.784-111.008-142.784-31.68 0-48.256 13.728-62.912 25.824-10.976 9.088-22.304 18.496-37.568 18.496-26.24 0-43.328-18.784-44.544-49.632v-131.264c0.032-71.52 67.2-136.64 140.928-136.64h196.128c29.696 1.216 48.864 18.72 48.864 44.672 0 15.584-8.864 25.6-16.704 34.432-10.496 11.808-21.312 24-21.312 55.488 0 56.512 51.328 93.024 130.72 93.024 79.424 0 130.752-36.512 130.752-93.024 0-31.488-10.848-43.68-21.312-55.488-7.84-8.832-16.736-18.848-16.736-34.432 0-26.304 18.72-43.392 49.536-44.64l126.112-0.032c68.864 0 116.992 53.664 116.992 130.496v148.8c0.832 3.904 10.688 18.816 25.728 18.816 3.072 0 6.176-2.528 13.088-8.672 13.12-11.744 32.992-29.504 76.576-29.504 69.888 0.032 140.672 53.6 140.672 156.064 0 110.528-64.288 160-128 160-43.008 0-67.84-19.648-84.288-32.64-7.296-5.76-14.144-11.2-18.048-11.2-15.072 0-24.928 14.976-25.664 18.272-0.032 0.256-0.032 0.512-0.064 0.768v114.656c0 77.728-49.216 134.144-116.992 134.144h-125.472c-0.416 0.032-0.832 0.064-1.28 0.096-16.896 0.64-16.896 3.744-16.896 8.928 0 3.136 2.496 6.24 8.672 13.216 11.68 13.152 29.376 33.088 29.376 76.736zM588.032 715.456c-7.84-8.832-16.736-18.88-16.736-34.464 0-17.6 8.032-38.784 47.072-40.864 0.736-0.096 1.472-0.128 2.24-0.128h126.336c55.808 0 85.056-51.392 85.056-102.144v-116.256c0-1.152-0.224-2.272 0-3.36 2.944-19.552 26.944-46.048 57.664-46.048 15.040 0 26.112 8.768 37.92 18.080 15.232 12.064 32.544 25.728 64.416 25.728 58.304 0 96-50.24 96-128 0-85.248-56.352-124.032-108.672-124.032-31.328 0-43.488 10.848-55.264 21.344-8.832 7.872-18.848 16.8-34.4 16.8-30.72 0-54.752-26.528-57.664-46.080-0.224-1.088 0-2.208 0-3.36v-150.208c0-48.992-26.336-98.464-85.056-98.464h-125.472c-18.176 0.736-18.176 9.12-18.176 12.672 0 3.104 2.496 6.24 8.672 13.216 11.68 13.184 29.376 33.088 29.376 76.736 0 62.24-50.304 125.024-162.752 125.024-97.312 0-162.72-50.24-162.72-125.024 0-43.648 17.664-63.552 29.376-76.736 6.144-6.944 8.672-10.080 8.672-13.216 0-3.584 0-11.968-17.536-12.672h-195.488c-54.944 0-108.896 51.84-108.896 104.64v130.624c0.704 18.272 8.992 18.272 12.544 18.272 3.712 0 10.24-5.408 17.184-11.136 15.936-13.216 40.096-33.184 83.296-33.184 69.024 0 142.976 70.24 142.976 174.784 0 103.936-74.176 160-144 160-42.88 0-66.528-18.176-82.176-30.24-7.104-5.472-13.248-10.176-17.28-10.176-3.52 0-11.808 0-12.544 17.632v118.784c0 56.576 57.408 96 108.896 96h195.68c0.512 0 0.992 0.032 1.504 0.064v0c39.52 1.472 47.808 23.104 47.808 40.96 0 15.584-8.864 25.6-16.704 34.432-10.496 11.808-21.312 24-21.312 55.52 0 55.648 53.088 93.024 132.128 93.024 78.56 0 129.344-36.512 129.344-93.024 0-31.488-10.848-43.712-21.312-55.52z" />
<glyph unicode="&#xe02b;" glyph-name="gears" horiz-adv-x="1344" d="M118.144 200.96c5.632-1.344 13.28-8.288 15.488-14.624l11.2-27.008c2.528-5.184 2.048-15.456-0.96-20.384l-44.704-73.088c-9.568-15.68-7.584-37.888 5.28-52.288l37.856-37.824c13.184-11.712 36.448-13.824 51.616-4.64l73.088 44.704c4.576 2.816 14.4 3.808 21.28 0.576l26.976-11.136c5.44-1.888 12.384-9.504 13.728-15.136l20.064-83.328c4.256-17.664 21.12-32.192 39.232-33.856 0 0 11.104-1.024 27.744-1.024s27.744 1.024 27.776 1.024c18.080 1.632 34.944 16.192 39.2 33.856l20.096 83.328c1.344 5.6 8.256 13.248 14.592 15.456l27.008 11.2c4.768 2.336 15.808 1.856 20.384-0.96l73.088-44.704c6.432-3.936 14.112-6.016 22.272-6.016 11.040 0 21.728 3.872 30.016 11.264l37.824 37.856c12.224 13.728 14.208 35.936 4.64 51.616l-44.704 73.088c-3.008 4.928-3.488 15.2-0.576 21.28l11.136 26.976c1.888 5.44 9.504 12.384 15.136 13.728l83.328 20.064c17.664 4.256 32.192 21.12 33.856 39.232 0 0 1.024 11.104 1.024 27.744s-1.024 27.744-1.024 27.776c-1.632 18.080-16.192 34.944-33.856 39.232l-83.296 20.032c-5.632 1.344-13.28 8.288-15.488 14.624l-11.2 27.008c-2.528 5.184-2.048 15.456 0.96 20.384l44.704 73.088c9.568 15.68 7.584 37.888-5.28 52.288l-37.856 37.824c-13.216 11.744-36.512 13.856-51.616 4.64l-73.088-44.704c-4.576-2.784-14.432-3.84-21.28-0.576l-26.976 11.136c-5.44 1.888-12.352 9.504-13.696 15.136l-20.096 83.328c-4.256 17.664-21.12 32.192-39.232 33.856-0.064-0.032-11.168 0.992-27.808 0.992s-27.744-1.024-27.776-1.024c-18.080-1.632-34.944-16.192-39.232-33.856l-20.032-83.264c-1.344-5.632-8.288-13.28-14.624-15.488l-27.008-11.2c-4.8-2.336-15.808-1.824-20.384 0.96l-73.056 44.704c-15.136 9.216-37.92 7.616-52.288-5.248l-37.824-37.856c-12.224-13.728-14.208-35.936-4.64-51.616l44.704-73.088c3.008-4.928 3.488-15.2 0.576-21.28l-11.136-26.976c-1.888-5.44-9.504-12.384-15.136-13.728l-83.328-20.064c-17.664-4.256-32.192-21.12-33.856-39.232 0.064 0-0.96-11.104-0.96-27.744s1.024-27.744 1.024-27.776c1.632-18.080 16.192-34.944 33.856-39.232l83.264-20.032zM32 288c0 14.656 0.864 24.544 0.896 24.864 0.384 4.32 5.28 9.984 9.472 11.008l83.328 20.064c16.16 3.904 32.448 18.688 37.504 33.504l10.368 25.184c7.296 14.944 6.272 36.896-2.4 51.104l-44.704 73.056c-2.144 3.552-1.536 10.592 0.576 12.992l36.512 36.544c2.912 2.592 10.336 3.232 13.664 1.216l73.088-44.704c13.856-8.48 37.6-9.056 50.176-2.816l25.216 10.432c15.712 5.408 30.496 21.696 34.4 37.888l20.032 83.296c1.024 4.224 6.688 9.12 11.008 9.504 0.32 0 10.208 0.864 24.864 0.864s24.544-0.864 24.864-0.896c4.32-0.384 9.984-5.28 11.008-9.472l20.064-83.296c3.904-16.16 18.656-32.48 33.504-37.536l25.184-10.368c14.624-7.168 37.28-6.048 51.104 2.4l73.056 44.704c3.328 2.016 11.2 0.96 12.992-0.576l36.544-36.512c2.752-3.104 3.36-10.112 1.216-13.664l-44.704-73.088c-8.672-14.176-9.696-36.16-2.816-50.176l10.432-25.216c5.408-15.712 21.696-30.496 37.888-34.4l83.296-20.032c4.224-1.024 9.12-6.688 9.504-11.008 0-0.32 0.864-10.208 0.864-24.864s-0.864-24.544-0.896-24.864c-0.384-4.32-5.28-9.984-9.472-11.008l-83.328-20.064c-16.16-3.904-32.448-18.688-37.504-33.504l-10.368-25.184c-7.296-14.944-6.272-36.896 2.4-51.104l44.704-73.056c2.144-3.552 1.536-10.592-0.576-12.992l-36.512-36.544c-1.728-1.536-4.864-2.528-8.032-2.528-2.208 0-4.256 0.48-5.6 1.312l-73.088 44.704c-13.824 8.448-37.568 9.056-50.176 2.816l-25.216-10.432c-15.712-5.408-30.496-21.728-34.368-37.888l-20.064-83.296c-1.024-4.224-6.688-9.12-11.008-9.504-0.352 0-10.24-0.864-24.896-0.864s-24.544 0.864-24.864 0.896c-4.32 0.384-9.984 5.28-11.008 9.472l-20.064 83.328c-3.904 16.16-18.688 32.448-33.504 37.504l-25.184 10.368c-6.528 3.2-14.432 4.864-22.88 4.864-10.528 0-20.544-2.592-28.224-7.296l-73.056-44.704c-3.328-2.016-11.232-0.928-12.992 0.576l-36.544 36.544c-2.752 3.104-3.36 10.112-1.216 13.664l44.704 73.088c8.672 14.176 9.696 36.16 2.816 50.176l-10.432 25.216c-5.408 15.712-21.696 30.496-37.888 34.4l-83.296 20.032c-4.224 1.024-9.12 6.688-9.504 11.008 0 0.32-0.864 10.208-0.864 24.864zM416 112c97.056 0 176 78.944 176 176s-78.944 176-176 176-176-78.944-176-176 78.944-176 176-176zM416 432c79.392 0 144-64.608 144-144s-64.608-144-144-144-144 64.608-144 144 64.608 144 144 144zM879.264 725.952c-1.28-1.952-5.92-4.416-8.288-4.416l-59.552 0.576c-14.464 0-28.96-10.272-33.696-23.872 0 0-2.624-7.456-5.504-18.88s-4.096-19.232-4.096-19.232c-2.24-14.432 5.792-30.4 18.688-37.152l52.512-27.52c2.016-1.056 4.992-5.504 5.312-8.736l2.976-20.32c0.48-2.24-1.056-7.36-2.688-8.96l-42.304-41.472c-10.592-10.368-13.376-28.096-6.080-42.016l19.168-32c8.096-11.904 25.632-17.984 39.392-13.696l58.368 17.856c3.168 0 6.336-1.216 8.128-2.656l16.48-12.16c1.92-1.28 4.448-5.984 4.416-8.288l-0.576-59.264c-0.128-14.592 10.112-29.216 23.872-34.016 0 0 7.456-2.624 18.88-5.504s19.232-4.096 19.232-4.096c0.832-0.128 4.16-0.384 4.992-0.384 13.056 0 26.304 7.84 32.16 19.072l27.52 52.512c1.056 2.016 5.504 4.992 8.736 5.312l21.216 3.072c3.2 0 6.976-1.664 8.032-2.752l41.472-42.304c10.080-10.304 27.072-13.984 42.016-6.080l31.968 19.168c12.224 8.32 18.144 25.28 13.728 39.392l-17.664 56.544c-0.672 2.176 0.384 7.424 2.496 9.952l12.16 16.48c1.28 1.952 5.92 4.416 8.288 4.416l59.552-0.576c14.464 0 28.96 10.272 33.696 23.872 0 0 2.624 7.456 5.504 18.88s4.096 19.232 4.096 19.232c2.24 14.432-5.792 30.4-18.688 37.152l-52.512 27.52c-2.016 1.056-4.992 5.504-5.312 8.736l-2.944 20.256c-0.48 2.24 1.056 7.36 2.688 8.96l42.304 41.472c10.592 10.368 13.376 28.096 6.080 42.016l-19.168 32c-8.096 11.872-25.6 18.016-39.392 13.728l-58.4-17.856c-3.168 0-6.336 1.216-8.128 2.656l-16.48 12.16c-1.92 1.28-4.448 5.984-4.416 8.288l0.576 59.264c0.128 14.592-10.112 29.216-23.872 34.016 0 0-7.456 2.624-18.88 5.504s-19.232 4.096-19.232 4.096c-0.832 0.096-4.16 0.352-4.992 0.352-13.056 0-26.304-7.84-32.16-19.072l-27.52-52.512c-1.056-2.016-5.504-4.992-8.736-5.312l-21.216-3.040c-3.2 0-6.976 1.664-8.032 2.752l-41.472 42.304c-10.048 10.272-27.008 13.984-42.016 6.080l-32-19.136c-12.224-8.32-18.144-25.28-13.728-39.392l17.664-56.544c0.672-2.176-0.384-7.424-2.496-9.952l-12.128-16.48zM905.504 707.648l10.976 14.912c8.576 10.144 11.904 26.688 7.936 39.328l-17.632 56.512c-0.16 0.896 0.544 2.912 0.384 2.944l30.336 18.176 3.616-0.544 41.504-42.304c7.36-7.488 19.488-12.352 30.88-12.352 2.624 0 5.152 0.256 6.528 0.608l18.4 2.72c13.184 1.152 27.232 10.496 33.376 22.208l27.488 52.48c0.512 0.8 2.528 1.952 3.84 1.952 0.352-0.032 6.88-1.12 16.416-3.488 9.504-2.4 15.776-4.544 16.064-4.672 0.992-0.416 2.432-2.496 2.496-3.52l-0.576-59.264c-0.128-13.248 7.84-28.128 18.144-34.848l14.88-10.976c9.888-8.352 26.848-11.872 39.328-7.936l56.768 17.664c1.344 0 2.848-0.832 2.656-0.416l18.176-30.336c0.352-0.832 0-2.944-0.544-3.616l-42.304-41.504c-9.44-9.312-14.336-25.44-11.744-37.408l2.688-18.4c1.152-13.184 10.496-27.232 22.24-33.376l52.48-27.488c0.896-0.576 2.016-2.816 1.952-3.84-0.032-0.352-1.12-6.88-3.488-16.416-2.4-9.504-4.544-15.776-4.672-16.064-0.416-0.992-2.496-2.432-3.52-2.496l-59.584 0.576c-13.152 0-27.872-7.968-34.528-18.144l-10.944-14.88c-8.576-10.144-11.904-26.688-7.936-39.328l17.632-56.512c0.16-0.864-0.544-2.912-0.384-2.944l-30.336-18.176-3.616 0.544-41.504 42.304c-7.36 7.488-19.488 12.352-30.88 12.352-2.624 0-5.152-0.256-6.528-0.608l-18.4-2.72c-13.184-1.152-27.232-10.496-33.376-22.208l-27.488-52.48c-0.512-0.8-2.528-1.952-3.84-1.952v0c-0.352 0.032-6.88 1.12-16.416 3.488-9.504 2.4-15.776 4.544-16.064 4.672-0.992 0.416-2.432 2.496-2.496 3.52l0.576 59.264c0.128 13.248-7.84 28.128-18.144 34.848l-14.88 10.976c-7.104 6.016-17.568 9.6-28 9.6-4.032 0-7.872-0.576-11.36-1.664l-56.768-17.664c-1.376 0-2.88 0.736-2.656 0.416l-18.176 30.336c-0.352 0.832 0 2.944 0.544 3.616l42.304 41.504c9.44 9.312 14.336 25.44 11.744 37.408l-2.688 18.368c-1.152 13.184-10.496 27.232-22.24 33.376l-52.48 27.488c-0.896 0.576-2.016 2.816-1.952 3.84 0.032 0.352 1.12 6.88 3.488 16.416 2.4 9.504 4.544 15.776 4.672 16.064 0.416 0.992 2.496 2.432 3.52 2.496l59.584-0.576c13.152 0 27.872 7.968 34.528 18.144zM1056 512c52.928 0 96 43.072 96 96s-43.072 96-96 96-96-43.072-96-96 43.072-96 96-96zM1056 672c35.296 0 64-28.704 64-64s-28.704-64-64-64-64 28.704-64 64 28.704 64 64 64z" />
<glyph unicode="&#xe02c;" glyph-name="key" d="M469.856 425.664c3.744 0 7.52 1.312 10.56 3.968l362.144 317.504-21.12 24.064-362.144-317.472c-6.656-5.824-7.328-15.936-1.472-22.592 3.168-3.616 7.584-5.472 12.032-5.472zM326.016-128c196.544 0 313.984 154.56 313.984 304 0 43.072-10.304 90.528-25.536 121.344l144.704 72.352c5.408 2.72 8.832 8.256 8.832 14.304v128h96c0.352 0 3.264 0.192 3.616 0.192 21.312 1.44 27.68 8.224 28.384 31.808v128h96c4.128 0 6.976-0.448 8.896-0.736 3.872-0.608 11.104-1.728 17.376 3.904 6.464 5.76 6.176 13.056 5.92 19.488-0.064 2.304-0.192 5.344-0.192 9.344v144.992c0 25.92-21.088 47.008-47.008 47.008h-124c-11.328 0-22.336-4.128-31.008-11.648l-421.984-369.92c-20.768 4.16-52.16 9.568-74.016 9.568-179.744 0-325.984-146.24-325.984-325.984s146.24-326.016 326.016-326.016zM326.016 492c16.032 0 43.488-3.84 75.328-10.496 4.96-1.088 10.048 0.32 13.824 3.616l427.872 375.104c2.784 2.432 6.336 3.776 9.952 3.776h124c8.288 0 15.008-6.72 15.008-15.008v-144.992h-112c-8.832 0-16-7.168-16-16v-144h-112c-8.832 0-16-7.168-16-16v-134.112l-151.168-75.584c-4.192-2.080-7.264-5.952-8.384-10.496s-0.192-9.376 2.56-13.184c14.080-19.424 28.992-67.648 28.992-118.624 0-133.696-105.472-272-281.984-272-162.112 0-294.016 131.904-294.016 294.016s131.904 293.984 294.016 293.984zM272 32c61.76 0 112 50.24 112 112s-50.24 112-112 112-112-50.24-112-112 50.24-112 112-112zM272 224c44.096 0 80-35.904 80-80s-35.904-80-80-80-80 35.904-80 80 35.904 80 80 80z" />
<glyph unicode="&#xe033;" glyph-name="tools" horiz-adv-x="992" d="M6.752 715.328c-27.104-27.136-21.312-65.344 0.256-86.88 0.864-0.832 87.488-83.584 209.312-205.408 3.136-3.136 7.232-4.672 11.328-4.672s8.192 1.568 11.328 4.672c6.24 6.24 6.24 16.384 0 22.624-18.368 18.368-35.84 35.744-52.416 52.192l50.848 50.848c6.24 6.24 6.24 16.384 0 22.624s-16.384 6.24-22.624 0l-50.976-50.976c-28.512 28.16-53.632 52.736-74.080 72.672l115.68 115.68c6.24 6.24 6.24 16.384 0 22.624s-16.384 6.24-22.624 0l-116.032-116.032c-23.552 22.816-37.12 35.776-37.344 36-6.752 6.752-15.616 25.76 0 41.376l160 160c6.176 6.272 22.624 18.72 40.672 0.768 0.8-0.896 81.6-92.672 204.928-216 6.24-6.24 16.384-6.24 22.624 0s6.24 16.384 0 22.624c-122.56 122.528-202.752 213.6-204.224 215.264-29.824 29.76-65.792 20.832-86.624 0l-160.032-160zM685.408 123.328c-6.24 6.24-16.384 6.24-22.624 0l-50.912-50.88c-15.52 15.712-31.808 32.16-48.96 49.312-6.24 6.24-16.384 6.24-22.624 0s-6.24-16.384 0-22.624c118.528-118.496 201.312-207.008 202.496-208.288 10.976-11.008 26.016-17.056 42.336-17.056v0c16.8 0 33.792 6.56 44.32 17.12l159.936 161.824c20.128 20.128 21.28 54.272 2.496 73.12l-214.592 214.56c-6.24 6.24-16.384 6.24-22.624 0s-6.24-16.384 0-22.624l214.592-214.56c6.4-6.4 5.184-20.224-2.528-27.936l-159.968-161.824c-3.68-3.712-12.032-7.68-21.632-7.68 0 0 0 0 0 0-5.504 0-13.376 1.344-19.328 7.328-0.32 0.352-13.728 14.656-36.992 39.008l116.608 116.608c6.24 6.24 6.24 16.384 0 22.624s-16.384 6.24-22.624 0l-116.128-116.128c-19.968 20.768-44.448 46.016-72.32 74.432l51.072 51.072c6.24 6.208 6.24 16.32 0 22.592zM-9.376-122.528c3.072-3.136 7.2-4.8 11.456-4.8 1.536 0 3.072 0.224 4.576 0.672l320 95.328c2.592 0.768 4.896 2.144 6.784 4.064l546.88 550.56c0.768 0.768 1.152 1.76 1.728 2.624l116.992 116.992c9.408 9.44 14.624 21.952 14.624 35.296 0 13.312-5.216 25.824-14.624 35.2l-167.52 167.488c-18.816 18.816-51.68 18.816-70.496 0l-119.648-119.648c-0.768-0.768-1.184-1.76-1.76-2.656l-547.712-547.744c-1.792-1.792-3.136-3.968-3.904-6.368l-101.12-310.88c-1.856-5.664-0.416-11.84 3.744-16.128zM653.6 727.328l33.248-33.248-496.736-498.080-55.264 12.544 518.752 518.784zM210.080 170.688l499.424 500.736 77.952-77.952-503.936-497.472h-73.44v74.688zM846.368 534.528l-519.808-523.328-18.464 64.064 501.984 495.584 36.288-36.32zM113.856 180.512l64.224-14.592v-85.92c0-8.832 7.168-16 16-16h83.968l20.288-70.4-271.616-80.928 87.136 267.84zM783.68 858.272c6.752 6.752 18.496 6.752 25.248 0l167.52-167.52c3.36-3.36 5.216-7.84 5.216-12.608 0-4.736-1.856-9.248-5.248-12.64l-107.872-107.904-192.736 192.736 107.872 107.936z" />
<glyph unicode="&#xe034;" glyph-name="tools-2" d="M907.328 852.672c3.68 3.68 5.344 8.928 4.448 14.048s-4.224 9.504-8.96 11.712c-73.312 34.56-160.32 19.392-217.536-38.112-54.336-54.688-73.312-140.576-47.968-212.384l-369.248-369.248c-20.064 7.168-41.504 10.752-63.872 10.752-54.848 0-108.032-21.824-145.888-59.904-57.024-57.344-73.088-142.080-40.992-215.904 2.112-4.864 6.496-8.384 11.712-9.344 5.248-0.992 10.592 0.672 14.304 4.448l111.712 112.288c7.36 7.424 19.232 8.416 25.376 2.176l48.224-50.464c7.008-7.072 6.688-17.984-0.704-25.44l-111.296-112c-3.68-3.68-5.312-8.928-4.416-14.048s4.224-9.472 8.928-11.68c26.528-12.512 54.432-18.816 82.912-18.816 50.304 0 98.080 20.224 134.624 56.96 54.336 54.656 73.312 140.544 47.936 212.352l369.248 369.28c20.096-7.168 41.536-10.752 63.904-10.752 54.848 0 108.032 21.824 145.888 59.904 57.024 57.344 73.088 142.080 40.992 215.904-2.112 4.864-6.496 8.384-11.712 9.344-5.152 0.896-10.56-0.672-14.304-4.448l-111.712-112.288c-6.88-6.912-18.56-6.848-25.632 0.32l-47.968 47.968c-7.232 7.264-7.2 18.176-0.032 25.408l112.032 111.968zM772.672 692.672l47.968-47.968c19.168-19.264 52-19.36 70.976-0.288l93.76 94.208c15.008-55.712-0.512-115.488-42.368-157.632-31.904-32.096-76.768-50.464-123.2-50.464-21.856 0-42.56 4.096-61.536 12.16-6.016 2.592-12.96 1.184-17.568-3.392l-384-384c-4.608-4.608-5.952-11.52-3.424-17.504 25.696-61.12 10.048-140-37.216-187.552-42.272-42.496-103.808-57.632-159.52-40.256l94.112 94.72c19.872 20 20.192 51.008 0.928 70.336l-48.192 50.464c-18.592 18.72-51.648 17.568-70.976-1.984l-93.76-94.208c-15.008 55.712 0.512 115.488 42.368 157.632 31.904 32.096 76.768 50.464 123.2 50.464 21.856 0 42.56-4.096 61.536-12.16 5.984-2.624 12.96-1.184 17.568 3.392l384 384c4.608 4.608 5.952 11.52 3.424 17.504-25.696 61.12-10.048 140.032 37.216 187.584 42.24 42.496 103.744 57.536 159.424 40.256l-94.72-94.752c-19.712-19.744-19.712-50.72 0-70.56zM934.72-84.704c-7.072-7.104-19.328-7.104-26.464 0.064l-320.96 320c-6.24 6.176-16.384 6.208-22.624-0.064-6.24-6.24-6.208-16.384 0.032-22.624l320.928-319.936c9.6-9.632 22.336-14.944 35.904-14.944 0 0 0 0 0 0 13.568 0 26.304 5.312 36.096 15.168l45.728 47.776c19.68 19.776 19.68 50.784-0.032 70.592l-320 320c-6.24 6.24-16.384 6.24-22.624 0s-6.24-16.384 0-22.624l319.968-319.968c7.328-7.36 7.328-18.048-0.224-25.664l-45.728-47.776zM187.328 795.328l-96 96c-6.24 6.24-16.384 6.24-22.624 0l-64-64c-6.24-6.24-6.24-16.384 0-22.624l96-96c3.104-3.136 7.2-4.704 11.296-4.704s8.192 1.568 11.328 4.672l20.672 20.704 244.672-244.672c3.136-3.136 7.232-4.704 11.328-4.704s8.192 1.568 11.328 4.672c6.24 6.24 6.24 16.384 0 22.624l-244.704 244.704 20.672 20.672c6.272 6.272 6.272 16.384 0.032 22.656zM112 742.624l-73.376 73.376 41.376 41.376 73.376-73.376-41.376-41.376z" />
<glyph unicode="&#xe036;" glyph-name="paintbrush" horiz-adv-x="704" d="M492.896 224h146.56c33.696 0 61.088 27.392 64.544 61.088v549.824c-3.456 33.696-30.848 61.088-64.544 61.088h-574.912c-33.696 0-61.088-27.392-64.544-61.088v-549.824c3.456-33.696 30.848-61.088 64.544-61.088h158.784c11.136 0 66.656-2.368 66.656-49.344 0-83.904-17.696-122.944-24.384-137.664l-1.568-3.488 12.896-5.568v-0.416l-14.304 2.88c-0.544-1.056-0.96-2.176-1.216-3.328-4.928-13.152-7.424-26.656-7.424-40.224 0.032-68.704 39.392-114.848 98.016-114.848 59.232 0 99.008 46.144 99.008 114.848 0 12.512-2.112 24.96-6.336 37.152-0.16 3.648-1.568 7.040-3.808 9.664-0.832 1.92-1.92 4-3.232 6.464-7.008 13.28-21.632 40.864-21.632 134.528 0 19.84 20.48 49.344 76.896 49.344zM32 510.112h640v-126.112h-640v126.112zM64.544 864h574.912c16.032 0 29.088-13.056 32.544-29.088v-292.768h-640v292.768c3.456 16.032 16.512 29.088 32.544 29.088zM409.344 25.152c0.896-1.696 1.664-3.104 2.976-6.048 0-0.032 0.096-0.224 0.224-0.512 0.128-0.416 0.256-0.8 0.416-1.216 4-10.016 6.016-20.32 6.016-30.528 0.032-40.064-17.568-82.848-66.976-82.848-48.672 0-65.984 42.784-65.984 82.848 0 10.208 2.016 20.512 6.016 30.528 0.128 0.384 0.288 0.736 0.384 1.12 0.448 0.96 0.992 2.176 1.056 2.304l1.344 2.976c7.424 16.448 27.232 60.032 27.232 150.88-0.064 64.224-62.048 81.344-99.648 81.344 0 0 0 0-0.032 0h-157.824c-16.032 0-29.088 13.056-32.544 29.088v66.912h640v-66.912c-3.456-16.032-16.512-29.088-32.544-29.088h-146.56c-79.904 0-108.896-48.672-108.896-81.344 0-101.6 17.12-133.984 25.344-149.504z" />
<glyph unicode="&#xe037;" glyph-name="zoom-in" d="M426.667 853.333q78 0 149.167-30.5t122.5-81.833 81.833-122.5 30.5-149.167q0-67-21.833-128.333t-62.167-111.333l242.333-242q12.333-12.333 12.333-30.333 0-18.333-12.167-30.5t-30.5-12.167q-18 0-30.333 12.333l-242 242.333q-50-40.333-111.333-62.167t-128.333-21.833q-78 0-149.167 30.5t-122.5 81.833-81.833 122.5-30.5 149.167 30.5 149.167 81.833 122.5 122.5 81.833 149.167 30.5zM426.667 768q-60.667 0-116-23.667t-95.333-63.667-63.667-95.333-23.667-116 23.667-116 63.667-95.333 95.333-63.667 116-23.667 116 23.667 95.333 63.667 63.667 95.333 23.667 116-23.667 116-63.667 95.333-95.333 63.667-116 23.667zM426.667 640q17.667 0 30.167-12.5t12.5-30.167v-85.333h85.333q17.667 0 30.167-12.5t12.5-30.167-12.5-30.167-30.167-12.5h-85.333v-85.333q0-17.667-12.5-30.167t-30.167-12.5-30.167 12.5-12.5 30.167v85.333h-85.333q-17.667 0-30.167 12.5t-12.5 30.167 12.5 30.167 30.167 12.5h85.333v85.333q0 17.667 12.5 30.167t30.167 12.5z" />
<glyph unicode="&#xe038;" glyph-name="zoom-out" d="M426.667 853.333q78 0 149.167-30.5t122.5-81.833 81.833-122.5 30.5-149.167q0-67-21.833-128.333t-62.167-111.333l242.333-242q12.333-12.333 12.333-30.333 0-18.333-12.167-30.5t-30.5-12.167q-18 0-30.333 12.333l-242 242.333q-50-40.333-111.333-62.167t-128.333-21.833q-78 0-149.167 30.5t-122.5 81.833-81.833 122.5-30.5 149.167 30.5 149.167 81.833 122.5 122.5 81.833 149.167 30.5zM426.667 768q-60.667 0-116-23.667t-95.333-63.667-63.667-95.333-23.667-116 23.667-116 63.667-95.333 95.333-63.667 116-23.667 116 23.667 95.333 63.667 63.667 95.333 23.667 116-23.667 116-63.667 95.333-95.333 63.667-116 23.667zM298.667 512h256q17.667 0 30.167-12.5t12.5-30.167-12.5-30.167-30.167-12.5h-256q-17.667 0-30.167 12.5t-12.5 30.167 12.5 30.167 30.167 12.5z" />
<glyph unicode="&#xe039;" glyph-name="search" d="M426.667 853.333q78 0 149.167-30.5t122.5-81.833 81.833-122.5 30.5-149.167q0-67-21.833-128.333t-62.167-111.333l242.333-242q12.333-12.333 12.333-30.333 0-18.333-12.167-30.5t-30.5-12.167q-18 0-30.333 12.333l-242 242.333q-50-40.333-111.333-62.167t-128.333-21.833q-78 0-149.167 30.5t-122.5 81.833-81.833 122.5-30.5 149.167 30.5 149.167 81.833 122.5 122.5 81.833 149.167 30.5zM426.667 768q-60.667 0-116-23.667t-95.333-63.667-63.667-95.333-23.667-116 23.667-116 63.667-95.333 95.333-63.667 116-23.667 116 23.667 95.333 63.667 63.667 95.333 23.667 116-23.667 116-63.667 95.333-95.333 63.667-116 23.667z" />
<glyph unicode="&#xe040;" glyph-name="circle-plus" d="M512 853.333q95.667 0 182.5-37.167t149.667-100 100-149.667 37.167-182.5-37.167-182.5-100-149.667-149.667-100-182.5-37.167-182.5 37.167-149.667 100-100 149.667-37.167 182.5 37.167 182.5 100 149.667 149.667 100 182.5 37.167zM512 768q-78 0-149.167-30.5t-122.5-81.833-81.833-122.5-30.5-149.167 30.5-149.167 81.833-122.5 122.5-81.833 149.167-30.5 149.167 30.5 122.5 81.833 81.833 122.5 30.5 149.167-30.5 149.167-81.833 122.5-122.5 81.833-149.167 30.5zM512 597.333q17.667 0 30.167-12.5t12.5-30.167v-128h128q17.667 0 30.167-12.5t12.5-30.167-12.5-30.167-30.167-12.5h-128v-128q0-17.667-12.5-30.167t-30.167-12.5-30.167 12.5-12.5 30.167v128h-128q-17.667 0-30.167 12.5t-12.5 30.167 12.5 30.167 30.167 12.5h128v128q0 17.667 12.5 30.167t30.167 12.5z" />
<glyph unicode="&#xe041;" glyph-name="circle-minus" d="M512 853.333q95.667 0 182.5-37.167t149.667-100 100-149.667 37.167-182.5-37.167-182.5-100-149.667-149.667-100-182.5-37.167-182.5 37.167-149.667 100-100 149.667-37.167 182.5 37.167 182.5 100 149.667 149.667 100 182.5 37.167zM512 768q-78 0-149.167-30.5t-122.5-81.833-81.833-122.5-30.5-149.167 30.5-149.167 81.833-122.5 122.5-81.833 149.167-30.5 149.167 30.5 122.5 81.833 81.833 122.5 30.5 149.167-30.5 149.167-81.833 122.5-122.5 81.833-149.167 30.5zM341.333 426.667h341.333q17.667 0 30.167-12.5t12.5-30.167-12.5-30.167-30.167-12.5h-341.333q-17.667 0-30.167 12.5t-12.5 30.167 12.5 30.167 30.167 12.5z" />
<glyph unicode="&#xe042;" glyph-name="circle-check" d="M512 853.333q95.667 0 182.5-37.167t149.667-100 100-149.667 37.167-182.5-37.167-182.5-100-149.667-149.667-100-182.5-37.167-182.5 37.167-149.667 100-100 149.667-37.167 182.5 37.167 182.5 100 149.667 149.667 100 182.5 37.167zM512 768q-78 0-149.167-30.5t-122.5-81.833-81.833-122.5-30.5-149.167 30.5-149.167 81.833-122.5 122.5-81.833 149.167-30.5 149.167 30.5 122.5 81.833 81.833 122.5 30.5 149.167-30.5 149.167-81.833 122.5-122.5 81.833-149.167 30.5zM655.667 512.333q17.667 0 30.167-12.5t12.5-30.167-12.667-30.333l-181-181q-12.333-12.333-30-12.333-18 0-30.333 12.333l-90.667 90.333q-12.333 12.333-12.333 30.333 0 17.667 12.5 30.167t30.167 12.5 30.333-12.667l60.333-60.333 150.667 151q12.667 12.667 30.333 12.667z" />
<glyph unicode="&#xe043;" glyph-name="circle-cross" d="M512 853.333q95.667 0 182.5-37.167t149.667-100 100-149.667 37.167-182.5-37.167-182.5-100-149.667-149.667-100-182.5-37.167-182.5 37.167-149.667 100-100 149.667-37.167 182.5 37.167 182.5 100 149.667 149.667 100 182.5 37.167zM512 768q-78 0-149.167-30.5t-122.5-81.833-81.833-122.5-30.5-149.167 30.5-149.167 81.833-122.5 122.5-81.833 149.167-30.5 149.167 30.5 122.5 81.833 81.833 122.5 30.5 149.167-30.5 149.167-81.833 122.5-122.5 81.833-149.167 30.5zM632.667 547.667q17.667 0 30.333-12.5t12.667-30.167-12.667-30.333l-90.667-90.667 90.667-90.333q12.667-12.667 12.667-30 0-17.667-12.667-30.167t-30.333-12.5-30 12.333l-90.667 90.333-90.333-90.333q-12.333-12.333-30.333-12.333-17.667 0-30.167 12.333t-12.5 30q0 18 12.333 30.333l90.667 90.333-90.667 90.667q-12.333 12.333-12.333 30t12.5 30.333 30.167 12.667 30.333-12.667l90.333-90.667 90.667 90.667q12.667 12.667 30 12.667z" />
<glyph unicode="&#xe047;" glyph-name="map-pin" horiz-adv-x="768" d="M384 896c-211.744 0-384-172.608-384-384.704 0-317.664 358.432-622.688 373.696-635.52 2.976-2.528 6.656-3.776 10.304-3.776 3.616 0 7.232 1.216 10.176 3.648 15.264 12.608 373.824 312.384 373.824 635.648 0 212.096-172.256 384.704-384 384.704zM384.064-90.816c-58.912 52.64-352.064 328.288-352.064 602.112 0 194.496 157.92 352.704 352 352.704s352-158.208 352-352.704c0-278.464-292.864-550.176-351.936-602.112zM384 704c-105.888 0-192-86.112-192-192s86.112-192 192-192 192 86.112 192 192-86.112 192-192 192zM384 352c-88.224 0-160 71.776-160 160s71.776 160 160 160 160-71.776 160-160-71.776-160-160-160z" />
<glyph unicode="&#xe04d;" glyph-name="download" horiz-adv-x="1344" d="M1086.656 480.576c-13.76 211.52-160.864 415.424-430.656 415.424-32.928 0-65.408-3.2-96.576-9.504-8.672-1.76-14.24-10.176-12.512-18.88 1.76-8.672 10.048-14.24 18.88-12.512 29.056 5.92 59.424 8.896 90.208 8.896 274.816 0 400-215.648 400-416v-48c0-8.832 7.168-16 16-16s16 7.168 16 16v48c0 0.16-0.032 0.352-0.032 0.512 98.016-8.448 224.032-93.824 224.032-272.512 0-152.544-112.448-272-256-272h-768c-127.232 0-256 93.44-256 272 0 131.008 80.128 272 256 272h48c8.832 0 16 7.168 16 16s-7.168 16-16 16h-48v64c0 119.264 73.568 193.344 192 193.344 107.648 0 192-84.928 192-193.344v-415.776l-133.12 123.52c-6.4 6.016-16.544 5.664-22.592-0.832-6.016-6.464-5.664-16.608 0.832-22.592l144.512-134.048c9.568-9.536 18.016-14.24 26.464-14.24 8.352 0 16.64 4.64 25.856 13.856l144.928 134.464c6.496 6.016 6.88 16.128 0.832 22.592-6.016 6.528-16.192 6.88-22.592 0.832l-133.12-123.552v415.776c0 126.368-98.4 225.344-224 225.344-136.064 0-224-88.448-224-225.344v-65.632c-168.16-16.256-256-160.096-256-302.368 0-147.36 100.928-304 288-304h768c161.504 0 288 133.536 288 304 0 201.728-145.824 296.896-257.344 304.576z" />
<glyph unicode="&#xe058;" glyph-name="repeat2" d="M42.667 341.333h256q17.667 0 30.167-12.5t12.5-30.167-12.5-30.167-30.167-12.5h-144l116-113.333q49.333-49.667 113-75 61-25 128.333-25t128.333 25q33.333 13.667 62.5 33.5t49.667 40.667 37.333 44.667 27 43.833 17.167 40q6 16.667 22 24.167t32.333 1.833q16.667-6 24.167-21.833t1.833-32.167q-14-42.667-40.667-84.667t-60-75.333q-61.333-61.333-141-93.667-77.333-31.333-160.667-31.333-83 0-160.667 31.333-79.667 32.333-141 93.667l-125 122.333v-162q0-17.667-12.5-30.167t-30.167-12.5-30.167 12.5-12.5 30.167v256q0 17.667 12.5 30.167t30.167 12.5zM512 810.667q83 0 160.667-31.333 79.667-32.333 141-93.667l0.667-0.667 124.333-121.667v162q0 17.667 12.5 30.167t30.167 12.5 30.167-12.5 12.5-30.167v-256q0-17.667-12.5-30.167t-30.167-12.5h-256q-17.667 0-30.167 12.5t-12.5 30.167 12.5 30.167 30.167 12.5h144l-116 113.333q-48.667 48.667-110.833 74.333t-130.5 25.667q-67.333 0-128.333-25-63.667-25.333-113-75-20-17.667-43.833-53.833t-36.833-73.833q-6-16.667-22-24.167t-32.333-1.833q-16.667 6-24.167 21.833t-1.833 32.167q14 42.667 40.667 84.667t60 75.333q61.333 61.333 141 93.667 77.667 31.333 160.667 31.333z" />
<glyph unicode="&#xe05a;" glyph-name="refresh" d="M852.192 768h155.808c8.832 0 16 7.168 16 16s-7.168 16-16 16h-192c-8.832 0-16-7.168-16-16v-192c0-8.832 7.168-16 16-16s16 7.168 16 16v150.944l19.552-19.552c90.656-90.656 140.608-211.2 140.608-339.392s-49.952-248.736-140.608-339.392c-134.56-134.592-336.128-177.024-513.632-108-8.224 3.264-17.504-0.864-20.704-9.088-3.2-8.256 0.864-17.536 9.12-20.704 60.288-23.424 123.136-34.816 185.504-34.816 133.44 0 264.512 52.16 362.336 150.016 96.704 96.672 149.984 225.28 149.984 362.016s-53.28 265.312-149.984 361.984l-21.984 21.984zM208 192c-8.832 0-16-7.168-16-16v-154.88l-22.816 22.816c-90.656 90.656-140.608 211.2-140.608 339.392s49.952 248.768 140.608 339.424c132.32 132.352 331.232 175.84 506.752 110.592 8.192-3.072 17.472 1.12 20.576 9.44 3.072 8.288-1.152 17.504-9.44 20.576-187.168 69.504-399.36 23.2-540.512-117.984-96.704-96.672-149.984-225.28-149.984-362.016s53.28-265.344 149.984-362.016l21.312-21.344h-151.872c-8.832 0-16-7.168-16-16s7.168-16 16-16h187.392c1.28-0.32 12.032 0.8 15.168 3.936 0.128 0.128 0.16 0.288 0.288 0.416 3.136 2.944 5.152 7.008 5.152 11.648v192c0 8.832-7.168 16-16 16z" />
<glyph unicode="&#xe066;" glyph-name="cloud-upload" d="M640 810.667q78 0 149.167-30.5t122.5-81.833 81.833-122.5 30.5-149.167q0-72.667-26.5-139.667t-72-117.333-108.667-83.5-134.167-41.167v86q71.667 10.333 130.167 51.833t92.167 105.667 33.667 138.167q0 60.667-23.667 116t-63.667 95.333-95.333 63.667-116 23.667q-55.333 0-106.5-19.833t-90-53.833-65-81.333-33.833-101h-88.667q-70.667 0-120.667-50t-50-120.667q0-38.667 15.167-71.667t39.833-54.167 54.833-33 60.833-11.833h170.667v-85.333h-170.667q-69.667 0-128.5 34.333t-93.167 93.167-34.333 128.5 34.333 128.5 93.167 93.167 128.5 34.333h22q26.333 74.333 79.333 132.167t126.833 90.833 155.833 33zM554.667 469.333q17.667 0 30.333-12.667l128-128q12.333-12.333 12.333-30 0-18.333-12.167-30.5t-30.5-12.167q-18 0-30.333 12.333l-55 55.333v-281q0-17.667-12.5-30.167t-30.167-12.5-30.167 12.5-12.5 30.167v281l-55-55.333q-12.333-12.333-30.333-12.333-17.667 0-30.167 12.5t-12.5 30.167q0 17 12.333 30l128 128q12.667 12.667 30.333 12.667z" />
<glyph unicode="&#xe067;" glyph-name="cloud-download3" d="M640 810.667q78 0 149.167-30.5t122.5-81.833 81.833-122.5 30.5-149.167q0-85-35-160.667t-96.667-129.167-140-77.5l21 20.667q18 18.333 28 42.667 9.333 22.667 9.333 49.333 0 6.667-0.333 9.333 59.333 41.333 93.833 105.833t34.5 139.5q0 60.667-23.667 116t-63.667 95.333-95.333 63.667-116 23.667q-55.333 0-106.5-19.833t-90-53.833-65-81.333-33.833-101h-88.667q-70.667 0-120.667-50t-50-120.667q0-38.667 15.167-71.667t39.833-54.167 54.833-33 60.833-11.833h50q11.667-29.333 30-48l37.667-37.333h-117.667q-69.667 0-128.5 34.333t-93.167 93.167-34.333 128.5 34.333 128.5 93.167 93.167 128.5 34.333h22q26.333 74.333 79.333 132.167t126.833 90.833 155.833 33zM554.667 469.333q17.667 0 30.167-12.5t12.5-30.167v-281l55 55.333q12.333 12.333 30.333 12.333 18.333 0 30.5-12.167t12.167-30.5q0-18-12.333-30.333l-128-128q-12.333-12.333-30.333-12.333t-30.333 12.333l-128 128q-12.333 13-12.333 30.333 0 17.667 12.5 30.167t30.167 12.5q18 0 30.333-12.333l55-55.333v281q0 17.667 12.5 30.167t30.167 12.5z" />
<glyph unicode="&#xe068;" glyph-name="upload" d="M213.333 896h597.333q53 0 90.5-37.5t37.5-90.5v-597.333q0-53-37.5-90.5t-90.5-37.5h-170.667v85.333h170.667q17.667 0 30.167 12.5t12.5 30.167v597.333q0 17.667-12.5 30.167t-30.167 12.5h-597.333q-17.667 0-30.167-12.5t-12.5-30.167v-597.333q0-17.667 12.5-30.167t30.167-12.5h170.667v-85.333h-170.667q-53 0-90.5 37.5t-37.5 90.5v597.333q0 53 37.5 90.5t90.5 37.5zM512 597.333q18 0 30.333-12.333l170.667-170.667q12.333-12.333 12.333-30.333 0-17.667-12.5-30.167t-30.167-12.5q-17.333 0-30.333 12.333l-97.667 98v-537q0-17.667-12.5-30.167t-30.167-12.5-30.167 12.5-12.5 30.167v537l-97.667-98q-13-12.333-30.333-12.333-17.667 0-30.167 12.5t-12.5 30.167q0 17.333 12.333 30.333l170.667 170.667q12.333 12.333 30.333 12.333z" />
<glyph unicode="&#xe069;" glyph-name="download2" d="M640 725.333h170.667q53 0 90.5-37.5t37.5-90.5v-597.333q0-53-37.5-90.5t-90.5-37.5h-597.333q-53 0-90.5 37.5t-37.5 90.5v597.333q0 53 37.5 90.5t90.5 37.5h170.667v-85.333h-170.667q-17.667 0-30.167-12.5t-12.5-30.167v-597.333q0-17.667 12.5-30.167t30.167-12.5h597.333q17.667 0 30.167 12.5t12.5 30.167v597.333q0 17.667-12.5 30.167t-30.167 12.5h-170.667v85.333zM512 896q17.667 0 30.167-12.5t12.5-30.167v-537l97.667 98q12.333 12.333 30.333 12.333 18.333 0 30.5-12.167t12.167-30.5q0-18-12.333-30.333l-170.667-170.667q-12.333-12.333-30.333-12.333t-30.333 12.333l-170.667 170.667q-12.333 13-12.333 30.333 0 17.667 12.5 30.167t30.167 12.5q18 0 30.333-12.333l97.667-98v537q0 17.667 12.5 30.167t30.167 12.5z" />
<glyph unicode="&#xe070;" glyph-name="location3" d="M0 426.667l1024 469.333-469.333-1024-128 426.667zM571.333 113.333l279.333 609.333-609.333-279.333 254-76z" />
<glyph unicode="&#xe079;" glyph-name="box" d="M42.667 682.667l469.333 213.333 469.333-213.333v-597.333l-469.333-213.333-469.333 213.333v597.333zM469.333 442l-341.333 155v-456.667l341.333-155.333v457zM896 140.333v456.667l-341.333-155v-457zM826.667 659.333l-314.667 143-314.667-143 314.667-143z" />
<glyph unicode="&#xe080;" glyph-name="reload" d="M469.333 810.667q83 0 160.667-31.333 79.667-32.333 141-93.667 0.333-0.333 125-122.333v162q0 17.667 12.5 30.167t30.167 12.5 30.167-12.5 12.5-30.167v-256q0-17.667-12.5-30.167t-30.167-12.5h-256q-17.667 0-30.167 12.5t-12.5 30.167 12.5 30.167 30.167 12.5h144q-92.667 90-116 113.333-49.667 49.667-113 75-61 25-128.333 25t-128.333-25q-63.667-25.333-113-75-49.333-49.333-75-113-25-61-25-128.333t25-128.333q25.667-63.667 75-113 49.333-49.667 113-75 61-25 128.333-25t128.333 25q63.333 25.333 113 75 55.333 55.333 80.667 127.667 5.667 16.667 21.667 24.167t32.667 1.833q16.667-6 24.333-22t1.667-32.667q-15.333-43.667-41.5-85.333t-59.167-74q-61.333-61.333-141-93.667-77.667-31.333-160.667-31.333t-160.667 31.333q-79.667 32.333-141 93.667t-93.667 141q-31.333 77.667-31.333 160.667t31.333 160.667q32.333 79.667 93.667 141t141 93.667q77.667 31.333 160.667 31.333z" />
<glyph unicode="&#xe085;" glyph-name="tag" d="M42.667 853.333h482.667l418.667-418.333q37.333-37.333 37.333-90.333 0-53.333-37.333-90.667l-302-302q-37.333-37.333-90.333-37.333-53.333 0-90.667 37.333l-418.333 418.667v482.667zM883.667 374.667l-393.667 393.333h-362v-362l393.333-393.667q12.667-12.333 30.333-12.333t30 12.333l302 302q12.333 12.333 12.333 30t-12.333 30.333zM362.667 640q44.333 0 75.5-31.167t31.167-75.5-31.167-75.5-75.5-31.167-75.5 31.167-31.167 75.5 31.167 75.5 75.5 31.167zM362.667 554.667q-8.667 0-15-6.333t-6.333-15 6.333-15 15-6.333 15 6.333 6.333 15-6.333 15-15 6.333z" />
<glyph unicode="&#xe094;" glyph-name="arrow-left2" d="M426.667 725.333q17.667 0 30.167-12.5t12.5-30.167q0-18-12.667-30.333l-225.667-225.667h665q17.667 0 30.167-12.5t12.5-30.167-12.5-30.167-30.167-12.5h-665l225.667-225.667q12.667-12.333 12.667-30.333 0-17.667-12.5-30.167t-30.167-12.5q-18 0-30.333 12.333l-298.667 298.667q-12.333 13-12.333 30.333t12.333 30.333l298.667 298.667q12.667 12.333 30.333 12.333z" />
<glyph unicode="&#xe095;" glyph-name="arrow-right2" d="M597.333 725.333q18 0 30.333-12.333l298.667-298.667q12.333-12.333 12.333-30.333t-12.333-30.333l-298.667-298.667q-12.333-12.333-30.333-12.333-18.333 0-30.5 12.167t-12.167 30.5q0 18 12.333 30.333l226 225.667h-665q-17.667 0-30.167 12.5t-12.5 30.167 12.5 30.167 30.167 12.5h665l-226 225.667q-12.333 12.333-12.333 30.333 0 18.333 12.167 30.5t30.5 12.167z" />
<glyph unicode="&#xe096;" glyph-name="arrow-up2" d="M512 810.667q18 0 30.333-12.333l298.667-298.667q12.333-12.333 12.333-30.333 0-18.333-12.167-30.5t-30.5-12.167q-18 0-30.333 12.333l-225.667 226v-665q0-17.667-12.5-30.167t-30.167-12.5-30.167 12.5-12.5 30.167v665l-225.667-226q-12.333-12.333-30.333-12.333-18.333 0-30.5 12.167t-12.167 30.5q0 18 12.333 30.333l298.667 298.667q12.333 12.333 30.333 12.333z" />
<glyph unicode="&#xe097;" glyph-name="arrow-down2" d="M512 810.667q17.667 0 30.167-12.5t12.5-30.167v-665l225.667 226q12.333 12.333 30.333 12.333 18.333 0 30.5-12.167t12.167-30.5q0-18-12.333-30.333l-298.667-298.667q-12.333-12.333-30.333-12.333t-30.333 12.333l-298.667 298.667q-12.333 12.333-12.333 30.333 0 18.333 12.167 30.5t30.5 12.167q18 0 30.333-12.333l225.667-226v665q0 17.667 12.5 30.167t30.167 12.5z" />
<glyph unicode="&#xe109;" glyph-name="trash" d="M426.667 853.333h170.667q53 0 90.5-37.5t37.5-90.5v-42.667h170.667q17.667 0 30.167-12.5t12.5-30.167-12.5-30.167-30.167-12.5h-42.667v-512q0-53-37.5-90.5t-90.5-37.5h-426.667q-53 0-90.5 37.5t-37.5 90.5v512h-42.667q-17.667 0-30.167 12.5t-12.5 30.167 12.5 30.167 30.167 12.5h170.667v42.667q0 53 37.5 90.5t90.5 37.5zM768 85.333v512h-512v-512q0-17.667 12.5-30.167t30.167-12.5h426.667q17.667 0 30.167 12.5t12.5 30.167zM597.333 768h-170.667q-17.667 0-30.167-12.5t-12.5-30.167v-42.667h256v42.667q0 17.667-12.5 30.167t-30.167 12.5z" />
<glyph unicode="&#xe112;" glyph-name="maximize" d="M597.333 341.667q17.667 0 30.333-12.667l268.333-268.333v195.667q0 17.667 12.5 30.167t30.167 12.5 30.167-12.5 12.5-30.167v-298.667q0-17.667-12.667-30.333t-30.333-12.667h-298.667q-17.667 0-30.167 12.5t-12.5 30.167 12.5 30.167 30.167 12.5h195.667l-268.333 268.333q-12.333 13-12.333 30.333 0 17.667 12.5 30.333t30.167 12.667zM85.333 853.333h298.667q17.667 0 30.167-12.5t12.5-30.167-12.5-30.167-30.167-12.5h-195.667l268.333-268q12.667-12.667 12.667-30.333t-12.667-30.167-30.333-12.5q-17 0-30.333 12.333l-268 268.333v-195.667q0-17.667-12.5-30.167t-30.167-12.5-30.167 12.5-12.5 30.167v298.667q0 17.667 12.5 30.167t30.167 12.5z" />
<glyph unicode="&#xe113;" glyph-name="minimize" d="M85.333 853.333q18 0 30.333-12.333l268.333-268.333v195.667q0 17.667 12.5 30.167t30.167 12.5 30.167-12.5 12.5-30.167v-298.667q0-17.667-12.667-30.333t-30.333-12.667h-298.667q-17.667 0-30.167 12.5t-12.5 30.167 12.5 30.167 30.167 12.5h195.667l-268.333 268.333q-12.333 12.333-12.333 30.333 0 18.333 12.167 30.5t30.5 12.167zM597.667 341.333h298.667q17.667 0 30.167-12.5t12.5-30.167-12.5-30.167-30.167-12.5h-195.667l268-268.333q12.667-12.667 12.667-30.333t-12.5-30.167-30.167-12.5q-18 0-30.333 12.333l-268.333 268.333v-195.667q0-17.667-12.5-30.167t-30.167-12.5-30.167 12.5-12.5 30.167v298.667q0 17.667 12.667 30.333t30.333 12.667z" />
<glyph unicode="&#xe114;" glyph-name="plus2" d="M512 810.667q17.667 0 30.167-12.5t12.5-30.167v-341.333h341.333q17.667 0 30.167-12.5t12.5-30.167-12.5-30.167-30.167-12.5h-341.333v-341.333q0-17.667-12.5-30.167t-30.167-12.5-30.167 12.5-12.5 30.167v341.333h-341.333q-17.667 0-30.167 12.5t-12.5 30.167 12.5 30.167 30.167 12.5h341.333v341.333q0 17.667 12.5 30.167t30.167 12.5z" />
<glyph unicode="&#xe115;" glyph-name="minus2" d="M128 426.667h768q17.667 0 30.167-12.5t12.5-30.167-12.5-30.167-30.167-12.5h-768q-17.667 0-30.167 12.5t-12.5 30.167 12.5 30.167 30.167 12.5z" />
<glyph unicode="&#xe116;" glyph-name="check2" d="M896 682.667q18.333 0 30.5-12.167t12.167-30.5q0-18-12.333-30.333l-512-512q-12.333-12.333-30.333-12.333t-30.333 12.333l-256 256q-12.333 12.333-12.333 30.333 0 18.333 12.167 30.5t30.5 12.167q18 0 30.333-12.333l225.667-226 481.667 482q12.333 12.333 30.333 12.333z" />
<glyph unicode="&#xe117;" glyph-name="cross" d="M810.667 725.333q18.333 0 30.5-12.167t12.167-30.5q0-18-12.333-30.333l-268.667-268.333 268.667-268.333q12.333-12.333 12.333-30.333 0-18.333-12.167-30.5t-30.5-12.167q-18 0-30.333 12.333l-268.333 268.667-268.333-268.667q-12.333-12.333-30.333-12.333-18.333 0-30.5 12.167t-12.167 30.5q0 18 12.333 30.333l268.667 268.333-268.667 268.333q-12.333 12.333-12.333 30.333 0 18.333 12.167 30.5t30.5 12.167q18 0 30.333-12.333l268.333-268.667 268.333 268.667q12.333 12.333 30.333 12.333z" />
<glyph unicode="&#xe129;" glyph-name="ellipsis" d="M853.333 512q53 0 90.5-37.5t37.5-90.5-37.5-90.5-90.5-37.5-90.5 37.5-37.5 90.5 37.5 90.5 90.5 37.5zM170.667 512q53 0 90.5-37.5t37.5-90.5-37.5-90.5-90.5-37.5-90.5 37.5-37.5 90.5 37.5 90.5 90.5 37.5zM170.667 426.667q-17.667 0-30.167-12.5t-12.5-30.167 12.5-30.167 30.167-12.5 30.167 12.5 12.5 30.167-12.5 30.167-30.167 12.5zM512 512q53 0 90.5-37.5t37.5-90.5-37.5-90.5-90.5-37.5-90.5 37.5-37.5 90.5 37.5 90.5 90.5 37.5zM512 426.667q-17.667 0-30.167-12.5t-12.5-30.167 12.5-30.167 30.167-12.5 30.167 12.5 12.5 30.167-12.5 30.167-30.167 12.5zM853.333 426.667q-17.667 0-30.167-12.5t-12.5-30.167 12.5-30.167 30.167-12.5 30.167 12.5 12.5 30.167-12.5 30.167-30.167 12.5z" />
<glyph unicode="&#xe803;" glyph-name="pdf" horiz-adv-x="891" d="M89.088 514.048v155.648c0 36.864 29.696 67.584 66.56 67.584h66.56v66.56c0 36.864 30.72 66.56 67.584 66.56h533.504c36.864 0 67.584-29.696 67.584-66.56v-756.736c0-36.864-30.72-67.584-67.584-67.584h-66.56v-66.56c0-36.864-29.696-66.56-66.56-66.56h-534.528c-36.864 0-66.56 29.696-66.56 66.56v155.648h66.56v-155.648h534.528v756.736h-534.528v-155.648h-66.56zM756.736 47.104h66.56v756.736h-533.504v-66.56h400.384c36.864 0 66.56-30.72 66.56-67.584v-622.592zM6.144 369.664h61.44c10.24 0 20.48-1.024 29.696-3.072 8.192-2.048 15.36-5.12 21.504-9.216 7.168-5.12 11.264-10.24 15.36-17.408 3.072-7.168 4.096-15.36 4.096-25.6s-1.024-19.456-5.12-25.6c-4.096-7.168-9.216-13.312-16.384-17.408-6.144-5.12-14.336-8.192-23.552-10.24-8.192-1.024-18.432-2.048-27.648-2.048h-26.624v-78.848h-32.768v189.44zM168.96 369.664h66.56c12.288 0 24.576-2.048 36.864-5.12 13.312-3.072 24.576-8.192 33.792-15.36 10.24-8.192 18.432-17.408 24.576-29.696s9.216-26.624 9.216-45.056c0-16.384-3.072-30.72-9.216-41.984-6.144-12.288-14.336-21.504-24.576-29.696-9.216-7.168-20.48-13.312-33.792-17.408-12.288-3.072-24.576-5.12-36.864-5.12h-66.56v189.44zM372.736 369.664h121.856v-29.696h-88.064v-51.2h82.944v-28.672h-82.944v-79.872h-33.792v189.44zM230.4 209.92c8.192 0 17.408 1.024 26.624 3.072 8.192 2.048 16.384 5.12 23.552 10.24 6.144 5.12 12.288 11.264 16.384 19.456 5.12 9.216 7.168 19.456 7.168 31.744 0 14.336-2.048 24.576-7.168 33.792-4.096 8.192-10.24 15.36-16.384 19.456-7.168 5.12-15.36 8.192-23.552 10.24-9.216 2.048-18.432 3.072-26.624 3.072h-27.648v-131.072h27.648zM62.464 286.72c6.144 0 11.264 1.024 16.384 1.024 5.12 1.024 9.216 3.072 13.312 5.12s7.168 4.096 9.216 8.192c2.048 3.072 3.072 8.192 3.072 13.312 0 6.144-1.024 10.24-3.072 14.336-2.048 3.072-5.12 6.144-9.216 7.168-4.096 2.048-8.192 4.096-13.312 4.096-5.12 1.024-10.24 1.024-15.36 1.024h-24.576v-54.272h23.552z" />
<glyph unicode="&#xe810;" glyph-name="nature" horiz-adv-x="1479" d="M353.28 692.224c0-1.024 0-1.024-1.024-1.024-44.032 8.192-84.992 11.264-123.904 11.264-67.584 0-120.832-10.24-163.84-28.672-15.36-6.144-27.648-14.336-38.912-21.504-7.168-5.12-12.288-10.24-15.36-13.312-14.336-15.36-13.312-39.936 2.048-54.272 14.336-15.36 38.912-14.336 53.248 1.024-1.024 0-1.024 0 0 0 1.024 1.024 2.048 2.048 4.096 3.072 6.144 5.12 14.336 9.216 24.576 14.336 32.768 13.312 76.8 22.528 134.144 22.528 25.6 0 53.248-2.048 80.896-5.12v0c-28.672-60.416-45.056-128-45.056-198.656 0-146.432 69.632-276.48 176.128-358.4 115.712-105.472 323.584-220.16 671.744-217.088 303.104 4.096 366.592 47.104 366.592 47.104s-160.768 176.128-232.448 362.496c-57.344 148.48-93.184 319.488-205.824 452.608v0c-22.528 28.672-49.152 54.272-78.848 75.776-7.168 6.144-14.336 11.264-22.528 17.408-5.12 3.072-10.24 6.144-16.384 8.192-64.512 38.912-139.264 60.416-219.136 60.416-114.688 0-220.16-45.056-297.984-119.808 76.8-17.408 177.152-55.296 288.768-135.168 263.168-185.344 361.472-524.288 361.472-524.288s-140.288 299.008-408.576 458.752c-189.44 112.64-272.384 137.216-293.888 142.336v0z" />
<glyph unicode="&#xe813;" glyph-name="move" d="M0 358.4l176.128 176.128v-121.856h281.6v281.6h-121.856l176.128 176.128 176.128-176.128h-121.856v-281.6h281.6v121.856l176.128-176.128-176.128-176.128v121.856h-281.6v-281.6h121.856l-176.128-176.128-176.128 176.128h121.856v281.6h-281.6v-121.856z" />
<glyph unicode="&#xe815;" glyph-name="exchange" d="M1024 193.536v-109.568q0-7.168-5.12-12.288t-13.312-6.144h-786.432v-109.568q0-7.168-5.12-12.288t-13.312-6.144q-6.144 0-13.312 6.144l-182.272 182.272q-5.12 5.12-5.12 13.312t5.12 13.312l183.296 182.272q5.12 5.12 12.288 5.12 8.192 0 13.312-5.12t5.12-13.312v-109.568h786.432q7.168 0 13.312-5.12t5.12-13.312zM1024 504.832q0-8.192-5.12-13.312l-183.296-183.296q-5.12-5.12-12.288-5.12-8.192 0-13.312 6.144t-5.12 12.288v109.568h-786.432q-7.168 0-13.312 6.144t-5.12 12.288v109.568q0 8.192 5.12 13.312t13.312 5.12h786.432v109.568q0 8.192 5.12 13.312t13.312 5.12q6.144 0 13.312-5.12l182.272-182.272q5.12-5.12 5.12-13.312z" />
<glyph unicode="&#xe81b;" glyph-name="download1" horiz-adv-x="1065" d="M590.848 115.712c-15.36-14.336-35.84-23.552-58.368-23.552s-43.008 9.216-57.344 23.552l-203.776 151.552c-15.36 11.264-25.6 29.696-25.6 50.176 0 33.792 27.648 61.44 61.44 61.44h143.36v409.6c0 45.056 36.864 81.92 81.92 81.92s81.92-36.864 81.92-81.92v-409.6h143.36c33.792 0 61.44-27.648 61.44-61.44 0-20.48-10.24-38.912-25.6-50.176l-202.752-151.552zM0-112.64c0 22.528 18.432 40.96 40.96 40.96h983.040c22.528 0 40.96-18.432 40.96-40.96s-18.432-40.96-40.96-40.96h-983.040c-22.528 0-40.96 18.432-40.96 40.96z" />
<glyph unicode="&#xe822;" glyph-name="mail" horiz-adv-x="1536" d="M1536 678.912c0 96.256-94.208 191.488-191.488 191.488h-1152c-98.304 0-192.512-95.232-192.512-191.488v-640c0-97.28 94.208-192.512 192.512-192.512h1152c97.28 0 191.488 95.232 191.488 192.512v640zM1344.512 742.4l-576.512-384-575.488 384h1152zM448.512 230.4c0 0 10.24 53.248 0 64.512-11.264 10.24-64.512 0-64.512 0l-256-192.512v512l640-384c-7.168-15.36 640 384 640 384v-512l-256 192.512c0 0-43.008 20.48-63.488 0-21.504-21.504 0-64.512 0-64.512l256-256h-1152l256 256z" />
<glyph unicode="&#xe825;" glyph-name="dorp" d="M256-153.6h-63.488c-35.84 0-64.512 28.672-64.512 63.488v385.024l-32.768-32.768-95.232 94.208 512 514.048 192.512-191.488v63.488c0 35.84 27.648 64.512 63.488 64.512s64.512-28.672 64.512-64.512v-191.488l191.488-192.512-96.256-96.256-31.744 32.768v-385.024c0-34.816-28.672-63.488-64.512-63.488h-63.488v576.512l-256 256-256-256v-576.512z" />
<glyph unicode="&#xe829;" glyph-name="bossen" d="M401.408 185.344c14.336-41.984 37.888-78.848 67.584-110.592-26.624-14.336-54.272-24.576-84.992-29.696v-198.656h-128v198.656c-146.432 28.672-256 154.624-256 305.152 0 173.056 320.512 520.192 320.512 520.192s120.832-131.072 214.016-272.384v0c-24.576-32.768-48.128-67.584-68.608-102.4-5.12 9.216-10.24 18.432-15.36 27.648-18.432 31.744-39.936 66.56-64.512 101.376-21.504 31.744-65.536 86.016-65.536 86.016s-36.864-41.984-66.56-86.016c-24.576-34.816-46.080-69.632-64.512-101.376-39.936-70.656-61.44-126.976-61.44-154.624 0-111.616 86.016-201.728 192.512-201.728 28.672 0 56.32 6.144 80.896 18.432v0 0zM384 286.72c0 172.032 320.512 520.192 320.512 520.192s319.488-348.16 319.488-520.192c0-151.552-109.568-277.504-256-306.176v-134.144h-128v134.144c-146.432 28.672-256 154.624-256 306.176v0 0zM637.952 561.152c-24.576-35.84-46.080-69.632-64.512-102.4-39.936-69.632-61.44-125.952-61.44-154.624 0-111.616 86.016-201.728 192.512-201.728 105.472 0 191.488 90.112 191.488 201.728 0 28.672-21.504 84.992-61.44 154.624-18.432 32.768-39.936 66.56-64.512 102.4-21.504 31.744-65.536 84.992-65.536 84.992s-36.864-40.96-66.56-84.992v0 0z" />
<glyph unicode="&#xe844;" glyph-name="rooms" d="M545.792 256v-68.608h-102.4v-67.584h102.4v-239.616c0-18.432 15.36-33.792 34.816-33.792h408.576c19.456 0 34.816 15.36 34.816 33.792v615.424c0 18.432-15.36 33.792-34.816 33.792h-238.592v307.2c0 18.432-15.36 33.792-33.792 33.792h-683.008c-18.432 0-33.792-15.36-33.792-33.792v-683.008c0-19.456 15.36-33.792 33.792-33.792h137.216v67.584h-102.4v614.4h614.4v-272.384h-102.4c-19.456 0-34.816-15.36-34.816-33.792v-34.816h409.6v-545.792h-340.992v340.992h-68.608z" />
<glyph unicode="&#xe84b;" glyph-name="fullscreen" d="M977.92 870.4h-930.816c-26.624 0-47.104-20.48-47.104-46.080v-931.84c0-25.6 20.48-46.080 47.104-46.080h930.816c25.6 0 46.080 20.48 46.080 46.080v931.84c0 25.6-20.48 46.080-46.080 46.080zM977.92-107.52h-930.816v931.84h930.816v-931.84zM777.216 624.64c-8.192 8.192-19.456 13.312-31.744 13.312h-372.736c-25.6 0-47.104-21.504-47.104-47.104s21.504-46.080 47.104-46.080h260.096l-137.216-137.216h-448.512c-25.6 0-47.104-20.48-47.104-46.080v-465.92c0-25.6 20.48-46.080 47.104-46.080h464.896c25.6 0 46.080 20.48 46.080 46.080v443.392l140.288 140.288v-260.096c0-25.6 20.48-47.104 46.080-47.104 26.624 0 47.104 20.48 47.104 47.104v372.736c0 12.288-5.12 23.552-14.336 32.768zM465.92-60.416h-372.736v372.736h372.736v-372.736z" />
<glyph unicode="&#xe856;" glyph-name="fill-1" horiz-adv-x="1400" d="M1235.968 524.288c7.168 11.264 10.24 28.672 0 59.392 10.24 110.592-98.304 209.92-229.376 209.92s-236.544-90.112-229.376-209.92c-15.36-4.096-30.72-9.216-45.056-14.336 1.024 0 1.024 0 1.024 0l-323.584 301.056-409.6-375.808 33.792-33.792 377.856 346.112 275.456-260.096c-14.336-9.216-27.648-18.432-38.912-29.696l-238.592 217.088-375.808-342.016v-510.976c0-19.456 15.36-34.816 34.816-34.816h238.592c18.432 0 33.792 15.36 33.792 33.792v239.616h137.216v-239.616c0-18.432 15.36-33.792 33.792-33.792h238.592c19.456 0 34.816 15.36 34.816 34.816v265.216c28.672-8.192 58.368-12.288 90.112-12.288 15.36 0 30.72 1.024 46.080 2.048v-256c0-18.432 15.36-33.792 33.792-33.792h102.4c19.456 0 34.816 15.36 34.816 33.792v307.2c4.096 2.048 8.192 5.12 12.288 7.168 24.576-5.12 59.392-14.336 98.304 0 107.52-14.336 196.608 62.464 196.608 149.504 0 91.136-69.632 159.744-163.84 180.224zM716.8-84.992h-171.008v238.592c0 18.432-14.336 33.792-33.792 33.792h-204.8c-18.432 0-33.792-15.36-33.792-33.792v-238.592h-171.008v443.392l307.2 273.408 192.512-172.032c-14.336-26.624-21.504-55.296-21.504-86.016 0-84.992 55.296-158.72 136.192-200.704v-258.048zM1195.008 259.072c-50.176-32.768-89.088-24.576-109.568-20.48-50.176-27.648-113.664-51.2-191.488-51.2-132.096 0-245.76 90.112-245.76 201.728 0 79.872 62.464 149.504 163.84 177.152-5.12 100.352 81.92 176.128 191.488 176.128s191.488-73.728 191.488-227.328c78.848-16.384 136.192-74.752 136.192-150.528 0-73.728-69.632-106.496-136.192-105.472z" />
<glyph unicode="&#xe85a;" glyph-name="zorg-1" horiz-adv-x="1054" d="M760.832 607.232h-68.608l68.608-64.512v64.512zM789.504 519.168h117.76v116.736h116.736v117.76h-116.736v116.736h-117.76v-116.736h-116.736v-117.76h116.736v-116.736zM760.832 490.496v16.384l-108.544 100.352h-8.192v8.192l-117.76 108.544-409.6-379.904v-467.968c0-13.312 17.408-29.696 29.696-29.696h760.832c12.288 0 28.672 16.384 28.672 29.696v467.968l-157.696 146.432h-17.408zM877.568-95.232h-702.464v409.6l351.232 321.536 351.232-321.536v-409.6zM1034.24 384l-113.664 106.496h-103.424l167.936-157.696 10.24-9.216 50.176 50.176-11.264 10.24zM517.12 772.096h19.456l-10.24-9.216 117.76-109.568v98.304l-107.52 100.352-10.24 9.216-9.216-9.216-508.928-478.208 50.176-50.176 10.24 9.216 457.728 430.080-9.216 9.216z" />
<glyph unicode="&#xe85f;" glyph-name="voorzieninge" horiz-adv-x="1251" d="M398.336 329.728c0 47.104 37.888 86.016 84.992 86.016h683.008c47.104 0 84.992-37.888 84.992-86.016 0-47.104-37.888-84.992-84.992-84.992h-683.008c-47.104 0-84.992 37.888-84.992 84.992v0 0zM398.336 728.064c0 47.104 37.888 84.992 84.992 84.992h683.008c47.104 0 84.992-36.864 84.992-84.992 0-47.104-37.888-84.992-84.992-84.992h-683.008c-47.104 0-84.992 37.888-84.992 84.992v0 0zM398.336-68.608c0 47.104 37.888 86.016 84.992 86.016h683.008c47.104 0 84.992-37.888 84.992-86.016 0-47.104-37.888-84.992-84.992-84.992h-683.008c-47.104 0-84.992 37.888-84.992 84.992v0 0zM142.336 244.736c47.104 0 84.992 37.888 84.992 84.992s-37.888 86.016-84.992 86.016c-47.104 0-84.992-38.912-84.992-86.016s37.888-84.992 84.992-84.992v0 0zM142.336-153.6c47.104 0 84.992 37.888 84.992 84.992s-37.888 86.016-84.992 86.016c-47.104 0-84.992-38.912-84.992-86.016s37.888-84.992 84.992-84.992v0 0zM203.776 602.112l-61.44 45.056-61.44-45.056c-4.096-3.072-9.216-4.096-13.312-4.096s-9.216 1.024-12.288 4.096c-8.192 5.12-11.264 15.36-8.192 23.552l24.576 73.728-62.464 44.032c-8.192 6.144-11.264 15.36-8.192 24.576s11.264 14.336 20.48 14.336c0 0 76.8 0 76.8 0l23.552 72.704c3.072 9.216 11.264 15.36 20.48 15.36s17.408-6.144 20.48-15.36l23.552-72.704h76.8c9.216 0 17.408-5.12 20.48-14.336s0-18.432-8.192-24.576l-62.464-44.032 24.576-73.728c3.072-8.192 0-18.432-8.192-23.552-3.072-3.072-8.192-4.096-12.288-4.096-5.12 0-9.216 1.024-13.312 4.096v0 0z" />
<glyph unicode="&#xe863;" glyph-name="atletiek" horiz-adv-x="1170" d="M1071.104 684.032c0-64.512-52.224-117.76-116.736-117.76s-116.736 53.248-116.736 117.76c0 64.512 52.224 116.736 116.736 116.736s116.736-52.224 116.736-116.736v0zM1136.64 437.248c-14.336 24.576-46.080 31.744-70.656 17.408-65.536-41.984-155.648-82.944-214.016-49.152-61.44 31.744-75.776 134.144-75.776 173.056v5.12c-17.408 144.384-68.608 234.496-151.552 270.336-121.856 54.272-256-43.008-263.168-48.128-21.504-17.408-26.624-49.152-12.288-70.656 17.408-22.528 49.152-26.624 70.656-12.288 24.576 16.384 105.472 60.416 163.84 36.864 33.792-15.36 56.32-54.272 70.656-98.304l-204.8-28.672c-14.336-3.072-26.624-3.072-38.912-5.12-51.2-10.24-95.232-24.576-123.904-51.2-17.408-12.288-27.648-31.744-22.528-53.248 65.536-315.392-229.376-517.12-241.664-524.288-24.576-15.36-28.672-47.104-14.336-70.656 10.24-15.36 26.624-22.528 41.984-22.528 9.216 0 19.456 2.048 26.624 7.168 9.216 5.12 143.36 95.232 226.304 251.904 93.184-27.648 163.84-39.936 215.040-39.936 60.416 0 95.232 17.408 114.688 54.272 33.792 65.536-36.864 167.936-137.216 265.216l197.632 17.408c17.408-53.248 49.152-111.616 107.52-146.432 28.672-16.384 60.416-24.576 97.28-24.576 63.488 0 136.192 24.576 219.136 75.776 27.648 17.408 34.816 46.080 19.456 70.656v0zM539.648 230.4c-17.408-3.072-68.608-5.12-194.56 28.672 16.384 49.152 26.624 105.472 26.624 163.84 90.112-80.896 158.72-158.72 167.936-192.512v0 0z" />
<glyph unicode="&#xe864;" glyph-name="balsport" d="M746.496 807.936c-243.712 134.144-550.912 45.056-684.032-199.68-134.144-243.712-44.032-550.912 199.68-685.056 243.712-133.12 550.912-44.032 685.056 200.704 133.12 243.712 44.032 550.912-200.704 684.032zM875.52 157.696c-1.024-2.048-3.072-5.12-5.12-8.192l-76.8 44.032c-5.12 2.048-10.24 3.072-15.36 3.072-5.12-1.024-10.24-3.072-14.336-7.168l-147.456-135.168c-8.192-8.192-10.24-19.456-5.12-29.696l29.696-65.536c-68.608-24.576-143.36-30.72-216.064-18.432l12.288 63.488c2.048 11.264-3.072 22.528-12.288 27.648l-175.104 97.28c-5.12 3.072-10.24 4.096-15.36 3.072-5.12 0-10.24-2.048-14.336-6.144l-47.104-44.032c-46.080 53.248-77.824 115.712-94.208 182.272l72.704 9.216c10.24 1.024 19.456 9.216 21.504 20.48l38.912 195.584c2.048 11.264-3.072 22.528-12.288 27.648l-83.968 47.104c1.024 2.048 3.072 5.12 4.096 8.192 36.864 67.584 89.088 120.832 150.528 158.72l25.6-55.296c5.12-10.24 15.36-16.384 26.624-14.336l198.656 25.6c10.24 1.024 19.456 9.216 21.504 20.48l15.36 83.968c50.176-7.168 100.352-22.528 146.432-48.128 36.864-20.48 69.632-46.080 98.304-73.728l-70.656-66.56c-8.192-8.192-10.24-19.456-5.12-29.696l84.992-181.248c5.12-9.216 15.36-15.36 26.624-14.336l89.088 12.288c4.096-78.848-12.288-158.72-52.224-232.448zM599.040 514.048c-2.048 5.12-6.144 9.216-10.24 12.288-5.12 2.048-10.24 3.072-15.36 3.072l-198.656-25.6c-11.264-2.048-19.456-10.24-21.504-20.48l-37.888-196.608c-2.048-11.264 3.072-22.528 13.312-27.648l175.104-96.256c9.216-5.12 21.504-3.072 29.696 4.096l145.408 137.216c8.192 7.168 10.24 19.456 6.144 29.696l-86.016 180.224z" />
<glyph unicode="&#xe865;" glyph-name="bibliotheek" horiz-adv-x="833" d="M829.44-89.088c0-35.84-28.672-64.512-63.488-64.512h-573.44c-115.712 0-192.512 66.56-192.512 166.912v758.784c0 54.272 44.032 98.304 98.304 98.304h607.232l-1.024-768h-512c-89.088 0-128-27.648-128-96.256 0-63.488 41.984-101.376 128-96.256h575.488v832.512h64.512l-3.072-831.488zM192.512 38.912c-18.432-3.072-32.768-13.312-32.768-32.768s14.336-28.672 32.768-31.744h512v64.512h-512z" />
<glyph unicode="&#xe866;" glyph-name="brandweer" horiz-adv-x="896" d="M400.384 266.24c-31.744 79.872-102.4 143.36-125.952 212.992-21.504-7.168-43.008-15.36-61.44-24.576 8.192-179.2 107.52-294.912 187.392-355.328 26.624 71.68 19.456 118.784 0 166.912v0zM777.216 114.688c68.608 105.472 118.784 241.664 118.784 411.648-88.064 66.56-221.184 105.472-360.448 115.712 11.264-20.48 25.6-41.984 40.96-61.44 78.848-11.264 152.576-33.792 209.92-67.584 0-125.952-35.84-229.376-84.992-311.296l75.776-87.040zM125.952 513.024c0-126.976 35.84-229.376 84.992-311.296l-75.776-87.040c-68.608 105.472-118.784 241.664-118.784 411.648 67.584 50.176 160.768 84.992 262.144 103.424-8.192-22.528-12.288-43.008-13.312-62.464-52.224-13.312-99.328-30.72-139.264-54.272v0zM303.104 86.016l-74.752-86.016c83.968-84.992 173.056-135.168 228.352-153.6 55.296 18.432 144.384 68.608 228.352 153.6l-75.776 86.016c-55.296-55.296-112.64-91.136-152.576-108.544-40.96 17.408-97.28 53.248-153.6 108.544v0zM456.704 867.328c-55.296-104.448-49.152-162.816-26.624-228.352 25.6-71.68 117.76-166.912 137.216-251.904 8.192-33.792 9.216-73.728-3.072-117.76l7.168-2.048c61.44 83.968 61.44 164.864 51.2 216.064 27.648-7.168 54.272-16.384 76.8-28.672-9.216-225.28-163.84-349.184-242.688-391.168-11.264 6.144-23.552 13.312-36.864 21.504 140.288 174.080 5.12 337.92-19.456 370.688-23.552 32.768-53.248 83.968-63.488 129.024-16.384 73.728-4.096 177.152 111.616 285.696l8.192-3.072z" />
<glyph unicode="&#xe867;" glyph-name="gemeentehuis" horiz-adv-x="1261" d="M1181.696-74.752v78.848h-78.848v394.24h-78.848v-394.24h-157.696v394.24h-78.848v-394.24h-314.368v394.24h-78.848v-394.24h-157.696v394.24h-78.848v-394.24h-78.848v-78.848h-78.848v-78.848h1260.544v78.848h-78.848zM1221.632 476.16c21.504 0 38.912 18.432 38.912 39.936 0 15.36-9.216 28.672-22.528 34.816l-545.792 305.152c-33.792 19.456-90.112 19.456-123.904 0l-547.84-306.176c-15.36-8.192-23.552-26.624-19.456-44.032 5.12-17.408 20.48-29.696 37.888-29.696h1182.72z" />
<glyph unicode="&#xe868;" glyph-name="politiebureau" horiz-adv-x="833" d="M784.384 176.128v50.176l-389.12-327.68v51.2l389.12 327.68v44.032l-214.016 142.336c5.12-15.36 7.168-50.176-13.312-92.16-25.6-55.296-90.112-98.304-110.592-111.616-23.552-15.36-36.864-30.72-40.96-43.008-2.048-8.192-5.12-19.456-3.072-31.744 22.528-4.096 47.104-23.552 47.104-56.32-1.024-33.792-26.624-60.416-60.416-60.416-32.768 0-60.416 26.624-59.392 60.416 0 23.552 15.36 50.176 47.104 58.368-8.192 24.576-11.264 34.816-11.264 66.56 1.024 60.416 65.536 111.616 65.536 111.616 45.056 38.912 74.752 73.728 79.872 110.592 6.144 33.792-9.216 76.8-9.216 76.8 16.384-4.096 23.552-10.24 32.768-19.456 7.168-8.192 14.336-21.504 14.336-21.504 9.216 29.696 7.168 53.248 2.048 72.704-5.12 21.504-13.312 43.008-36.864 62.464-24.576 23.552-47.104 27.648-47.104 27.648 6.144-11.264 10.24-27.648 7.168-61.44s-12.288-53.248-34.816-83.968c-21.504-28.672-64.512-64.512-90.112-99.328-23.552-32.768-33.792-61.44-35.84-87.040-2.048-38.912 14.336-79.872 14.336-79.872-15.36 8.192-33.792 24.576-45.056 47.104-13.312 24.576-19.456 46.080-20.48 87.040-1.024 35.84 13.312 87.040 41.984 122.88 19.456 24.576 68.608 71.68 87.040 109.568 17.408 37.888 15.36 58.368 15.36 73.728s-8.192 37.888-8.192 37.888c11.264-2.048 25.6-11.264 29.696-15.36 7.168-6.144 14.336-13.312 14.336-13.312 2.048 11.264 3.072 30.72-2.048 57.344-8.192 38.912-25.6 61.44-51.2 80.896-27.648 21.504-53.248 19.456-53.248 19.456 11.264-14.336 19.456-29.696 23.552-52.224 4.096-21.504 4.096-47.104-8.192-73.728-13.312-31.744-50.176-60.416-77.824-87.040-27.648-27.648-52.224-56.32-71.68-95.232-22.528-47.104-24.576-81.92-15.36-128 9.216-54.272 38.912-88.064 38.912-88.064-22.528 8.192-40.96 21.504-53.248 34.816-13.312 14.336-21.504 29.696-26.624 43.008l-145.408-99.328v-148.48l392.192-329.728 110.592 92.16 95.232 80.896 186.368 156.672z" />
<glyph unicode="&#xe869;" glyph-name="racketsport" d="M256 775.168c0 53.248-43.008 95.232-96.256 95.232-52.224 0-95.232-41.984-95.232-95.232 0-52.224 43.008-95.232 95.232-95.232 53.248 0 96.256 43.008 96.256 95.232zM192.512 775.168c0-17.408-14.336-31.744-32.768-31.744-17.408 0-31.744 14.336-31.744 31.744s14.336 31.744 31.744 31.744c18.432 0 32.768-14.336 32.768-31.744zM741.376 864.256c-106.496 0-216.064-48.128-301.056-133.12-73.728-72.704-120.832-164.864-132.096-258.048-1.024-11.264-2.048-22.528-2.048-33.792-1.024-3.072-2.048-5.12-2.048-8.192l-21.504-237.568-242.688-240.64c-11.264 1.024-22.528-1.024-30.72-9.216-12.288-12.288-12.288-31.744 0-43.008l45.056-45.056c6.144-6.144 14.336-9.216 21.504-9.216 8.192 0 16.384 3.072 21.504 9.216 9.216 8.192 11.264 21.504 7.168 31.744 0 0 243.712 239.616 243.712 239.616l236.544 19.456c5.12 0 10.24 2.048 14.336 5.12 103.424 3.072 208.896 50.176 290.816 132.096 73.728 73.728 120.832 165.888 132.096 259.072 11.264 95.232-16.384 182.272-77.824 242.688-51.2 51.2-122.88 78.848-202.752 78.848zM957.44 636.928l-38.912-37.888-59.392 58.368 61.44 61.44c17.408-23.552 29.696-51.2 36.864-81.92v0zM534.528 217.088c-30.72 7.168-58.368 18.432-81.92 35.84l56.32 56.32 58.368-59.392-32.768-32.768zM406.528 410.624l58.368-58.368-55.296-55.296c-17.408 23.552-29.696 51.2-36.864 80.896l33.792 32.768zM669.696 556.032l-58.368-59.392-59.392 59.392 59.392 58.368 58.368-58.368zM654.336 657.408l59.392 58.368 58.368-58.368-58.368-58.368-59.392 58.368zM567.296 453.632l-58.368-58.368-59.392 58.368 59.392 59.392 58.368-59.392zM551.936 352.256l59.392 58.368 58.368-58.368-58.368-59.392-59.392 59.392zM654.336 453.632l59.392 59.392 58.368-59.392-58.368-58.368-59.392 58.368zM756.736 556.032l59.392 58.368 58.368-58.368-58.368-59.392-59.392 59.392zM816.128 700.416l-59.392 58.368 38.912 38.912c30.72-6.144 58.368-18.432 81.92-35.84l-61.44-61.44zM642.048 787.456l27.648-28.672-58.368-58.368-50.176 49.152c26.624 16.384 53.248 28.672 80.896 37.888v0zM483.328 688.128c9.216 9.216 18.432 17.408 27.648 25.6l56.32-56.32-58.368-58.368-56.32 55.296c10.24 11.264 19.456 22.528 30.72 33.792v0zM417.792 603.136l47.104-47.104-58.368-59.392-25.6 24.576c9.216 28.672 21.504 55.296 36.864 81.92v0zM343.040 187.392l8.192 84.992c10.24-15.36 21.504-29.696 34.816-41.984 13.312-14.336 27.648-25.6 44.032-35.84l-87.040-7.168zM678.912 225.28l-24.576 24.576 59.392 59.392 48.128-48.128c-26.624-15.36-54.272-27.648-82.944-35.84v0zM846.848 326.656c-11.264-10.24-22.528-20.48-34.816-29.696l-55.296 55.296 59.392 58.368 56.32-56.32c-8.192-9.216-16.384-18.432-25.6-27.648v0zM908.288 404.48l-49.152 49.152 59.392 59.392 27.648-27.648c-9.216-27.648-21.504-55.296-37.888-80.896v0z" />
<glyph unicode="&#xe86a;" glyph-name="zwemmen-" horiz-adv-x="1365" d="M1364.992-109.568c-28.672 0-57.344 6.144-82.944 18.432-25.6 11.264-54.272 18.432-84.992 18.432s-59.392-7.168-84.992-18.432c-25.6-12.288-54.272-18.432-82.944-18.432-29.696 0-58.368 6.144-82.944 18.432-26.624 11.264-55.296 18.432-86.016 18.432s-59.392-7.168-86.016-18.432c-24.576-12.288-53.248-18.432-81.92-18.432-29.696 0-58.368 6.144-83.968 18.432-25.6 11.264-54.272 18.432-84.992 18.432s-59.392-7.168-84.992-18.432c-25.6-12.288-54.272-18.432-83.968-18.432-28.672 0-57.344 6.144-81.92 18.432-26.624 11.264-55.296 18.432-86.016 18.432s-59.392-7.168-84.992-18.432c-25.6-12.288-54.272-18.432-82.944-18.432v125.952c28.672 0 57.344 6.144 82.944 17.408 25.6 12.288 54.272 19.456 84.992 19.456s59.392-7.168 86.016-19.456c24.576-11.264 53.248-17.408 81.92-17.408 29.696 0 58.368 6.144 83.968 17.408 25.6 12.288 54.272 19.456 84.992 19.456s59.392-7.168 84.992-19.456c25.6-11.264 54.272-17.408 83.968-17.408 28.672 0 57.344 6.144 81.92 17.408 26.624 12.288 55.296 19.456 86.016 19.456s59.392-7.168 86.016-19.456c24.576-11.264 53.248-17.408 82.944-17.408 28.672 0 57.344 6.144 82.944 17.408 25.6 12.288 54.272 19.456 84.992 19.456s59.392-7.168 84.992-19.456c25.6-11.264 54.272-17.408 82.944-17.408v-125.952zM1170.432 245.76c88.064 0 159.744 72.704 159.744 162.816 0 89.088-71.68 161.792-159.744 161.792-89.088 0-160.768-72.704-160.768-161.792 0-90.112 65.536-162.816 160.768-162.816v0zM236.544 154.624c12.288-3.072 24.576-7.168 35.84-12.288 24.576-11.264 53.248-18.432 81.92-18.432 29.696 0 58.368 7.168 83.968 18.432s54.272 19.456 84.992 19.456c30.72 0 59.392-8.192 84.992-19.456s54.272-18.432 82.944-18.432c29.696 0 58.368 7.168 82.944 18.432 26.624 11.264 55.296 19.456 86.016 19.456 29.696 0 59.392-8.192 86.016-19.456 24.576-11.264 53.248-18.432 81.92-18.432 21.504 0 43.008 4.096 62.464 10.24l-267.264 487.424 310.272 57.344c46.080 9.216 78.848 45.056 78.848 91.136 0 51.2-40.96 92.16-91.136 92.16-4.096 0-7.168 0-10.24 0l-480.256-88.064c-33.792-8.192-78.848-58.368-53.248-118.784 1.024-4.096 3.072-7.168 4.096-10.24l124.928-229.376-470.016-261.12z" />
<glyph unicode="&#xe86d;" glyph-name="kavel-icon" horiz-adv-x="1463" d="M974.848-56.32v288.768c0 1.024-131.072-41.984-145.408-44.032v-244.736h-780.288c-27.648 0-49.152-21.504-49.152-48.128 0-27.648 21.504-49.152 49.152-49.152h1364.992c26.624 0 49.152 21.504 49.152 49.152 0 26.624-22.528 48.128-49.152 48.128h-439.296zM940.032 844.8c-120.832 0-222.208-61.44-236.544-202.752v0c-102.4-39.936-166.912-125.952-166.912-226.304 0-147.456 135.168-266.24 293.888-266.24 70.656 0 134.144 17.408 192.512 48.128 8.192 4.096 5.12 5.12 9.216 4.096 35.84-5.12 69.632 0 105.472 20.48 7.168 3.072 5.12 4.096 10.24 4.096 94.208 6.144 168.96 65.536 168.96 162.816 0 84.992-48.128 155.648-121.856 191.488-16.384 8.192-16.384 9.216-16.384 9.216-12.288 158.72-103.424 254.976-238.592 254.976v0 0 0 0 0 0 0 0 0 0 0zM1082.368 551.936v-38.912l37.888-9.216c60.416-13.312 99.328-58.368 99.328-114.688 0-40.96-34.816-66.56-87.040-65.536l-16.384 1.024-13.312-9.216c-24.576-18.432-41.984-20.48-65.536-15.36-3.072 0-3.072 0-5.12 1.024l-18.432 4.096-16.384-10.24c-51.2-30.72-105.472-47.104-166.912-47.104-107.52 0-196.608 76.8-196.608 167.936 0 64.512 48.128 120.832 128 143.36l37.888 10.24-2.048 38.912c-4.096 77.824 58.368 139.264 142.336 139.264 88.064 0 142.336-65.536 142.336-195.584v0 0 0 0 0 0 0 0 0 0z" />
<glyph unicode="&#xe86f;" glyph-name="settings" d="M928.768 297.984l95.232 39.936c-5.12 63.488-5.12 61.44-11.264 124.928l-100.352 23.552c-17.408 38.912-25.6 55.296-44.032 94.208l47.104 92.16c-45.056 45.056-43.008 43.008-89.088 89.088l-91.136-47.104c-38.912 18.432-55.296 25.6-95.232 44.032l-22.528 100.352c-63.488 6.144-61.44 6.144-125.952 11.264l-39.936-95.232c-40.96-10.24-59.392-15.36-100.352-26.624l-82.944 62.464c-52.224-36.864-50.176-35.84-102.4-72.704l29.696-98.304c-24.576-34.816-34.816-50.176-60.416-84.992l-102.4-5.12c-16.384-62.464-16.384-59.392-32.768-121.856l86.016-56.32c4.096-43.008 6.144-60.416 9.216-103.424l-74.752-70.656c26.624-58.368 25.6-55.296 52.224-113.664l102.4 12.288c30.72-30.72 44.032-43.008 73.728-73.728l-12.288-102.4c58.368-26.624 55.296-26.624 113.664-53.248l70.656 75.776c43.008-4.096 61.44-6.144 104.448-9.216l55.296-87.040c62.464 16.384 59.392 16.384 121.856 32.768l5.12 102.4c34.816 24.576 50.176 35.84 86.016 60.416l98.304-30.72c36.864 52.224 34.816 50.176 71.68 103.424l-61.44 81.92c11.264 41.984 15.36 59.392 26.624 101.376zM535.552 102.4c-164.864 0-279.552 114.688-279.552 232.448 0 164.864 114.688 279.552 279.552 279.552 117.76 0 232.448-114.688 232.448-279.552 0-117.76-114.688-232.448-232.448-232.448z" />
<glyph unicode="&#xe870;" glyph-name="aanbod" d="M704.512 678.912l-192.512 191.488-512-514.048 95.232-94.208 32.768 32.768v-385.024c0-34.816 28.672-63.488 64.512-63.488h638.976c35.84 0 64.512 28.672 64.512 63.488v385.024l31.744-32.768 96.256 96.256-191.488 192.512v191.488c0 35.84-28.672 64.512-64.512 64.512s-63.488-28.672-63.488-64.512v-63.488zM320.512 166.912h191.488v-320.512h-191.488v320.512z" />
<glyph unicode="&#xe900;" glyph-name="wwzr-bijgebouw" d="M920 500.8l-180.8 211.2c-12.8 14.4-32 24-51.2 24v1.6l-8-3.2c-9.6 0-19.2-3.2-28.8-8l-3.2-1.6-120-36.8c-19.2-6.4-46.4-17.6-62.4-27.2l-336-187.2c-9.6-3.2-19.2-8-27.2-14.4l-6.4-4.8v-1.6c-12.8-14.4-20.8-32-20.8-51.2v-272h64v272c0 3.2 4.8 9.6 8 9.6l113.6 33.6c3.2 1.6 6.4 1.6 11.2 3.2l188.8-219.2c6.4-8 12.8-25.6 12.8-35.2v-272h64v272c0 4.8 0 8-1.6 12.8l348.8 195.2v-249.6h64v272c0 25.6-11.2 57.6-28.8 76.8zM508.8 270.4l-176 204.8 350.4 195.2c1.6 1.6 8 0 9.6-1.6l176-204.8-356.8-198.4c-1.6 1.6-1.6 3.2-3.2 4.8zM139.2 617.6v-59.2c0-17.6 12.8-32 27.2-32s27.2 14.4 27.2 32v59.2c0 17.6 14.4 32 32 32h52.8c17.6 0 32 11.2 32 25.6s-14.4 25.6-32 25.6h-52.8c-17.6 0-32 14.4-32 32v59.2c0 17.6-12.8 32-27.2 32s-27.2-14.4-27.2-32v-57.6c0-17.6-14.4-32-32-32h-52.8c-17.6 0-32-11.2-32-25.6s14.4-25.6 32-25.6h52.8c17.6-1.6 32-16 32-33.6z" />
<glyph unicode="&#xe901;" glyph-name="wwzr-download" d="M873.6 708.8l-161.6 99.2c-4.8 3.2-11.2 4.8-17.6 4.8h-512c-19.2 0-33.6-16-33.6-33.6v-824c0-19.2 16-33.6 33.6-33.6h150.4c32 0 46.4 38.4 22.4 59.2l-11.2 9.6c-6.4 4.8-14.4 8-22.4 8h-64c-19.2 0-33.6 16-33.6 33.6v670.4c0 19.2 16 33.6 33.6 33.6h414.4c3.2 0 6.4 0 9.6-1.6l11.2-120c1.6-9.6 11.2-14.4 19.2-9.6l94.4 52.8c4.8-6.4 8-12.8 8-20.8v-604.8c0-19.2-16-33.6-33.6-33.6h-76.8c-8 0-17.6-3.2-24-9.6l-9.6-8c-22.4-20.8-8-59.2 24-59.2h161.6c19.2 0 33.6 16 33.6 33.6v724.8c0 12.8-6.4 22.4-16 28.8zM587.2 72v235.2c0 6.4-4.8 11.2-11.2 11.2h-116.8c-6.4 0-11.2-4.8-11.2-11.2v-236.8c0-6.4-4.8-11.2-11.2-11.2h-84.8c-9.6 0-14.4-12.8-8-19.2l48-43.2 86.4-76.8 30.4-27.2c4.8-3.2 11.2-3.2 14.4 0l28.8 27.2 81.6 76.8 44.8 43.2c8 6.4 3.2 19.2-8 19.2h-73.6c-4.8 1.6-9.6 6.4-9.6 12.8z" />
<glyph unicode="&#xe902;" glyph-name="wwzr-huis-a" d="M1024 758.4l-148.8-56c-8-3.2-8-9.6 0-12.8l64-33.6c8-4.8 6.4-6.4-1.6-6.4l-209.6 14.4c-8 0-16 8-16 17.6v73.6c0 9.6 6.4 12.8 14.4 8l35.2-17.6c8-4.8 20.8-4.8 28.8-1.6l128 52.8c8 3.2 20.8 3.2 28.8-1.6l76.8-36.8zM763.2 540.8l-144 264c-8 14.4-22.4 25.6-38.4 30.4s-33.6 3.2-48-6.4l-296-169.6c-16-9.6-41.6-24-56-35.2l-123.2-83.2c-24-16-40-48-40-76.8v-340.8c0-28.8 19.2-60.8 43.2-75.2l296-169.6c12.8-8 28.8-11.2 43.2-11.2 16 0 30.4 3.2 43.2 11.2l294.4 169.6c25.6 14.4 43.2 46.4 43.2 75.2v342.4c1.6 22.4-6.4 54.4-17.6 75.2zM563.2 774.4l144-264c1.6-4.8 4.8-9.6 6.4-16l-308.8-177.6c-1.6 4.8-4.8 9.6-6.4 14.4l-144 265.6c4.8 3.2 9.6 6.4 14.4 8l294.4 169.6zM92.8 104c-6.4 3.2-12.8 14.4-12.8 20.8v340.8c0 6.4 6.4 19.2 12.8 24l123.2 83.2c3.2 1.6 6.4 4.8 11.2 6.4l142.4-262.4c8-14.4 14.4-38.4 14.4-54.4v-326.4l-291.2 168zM705.6 104l-289.6-168v326.4c0 6.4-1.6 14.4-1.6 20.8l304 176v-336c0-4.8-6.4-16-12.8-19.2z" />
<glyph unicode="&#xe903;" glyph-name="wwzr-huis-v" d="M320-28.8c-1.6 8-9.6 16-19.2 17.6l-180.8 17.6c-8 0-9.6-3.2-1.6-8l36.8-24c8-4.8 6.4-11.2-1.6-14.4l-113.6-46.4c-8-3.2-12.8-8-11.2-9.6s11.2-6.4 17.6-9.6l40-20.8c8-4.8 20.8-4.8 28.8-1.6l113.6 46.4c8 3.2 20.8 3.2 28.8-1.6l62.4-32c8-4.8 12.8 0 11.2 8l-11.2 78.4zM971.2 540.8l-144 264c-8 14.4-22.4 25.6-38.4 30.4s-33.6 3.2-48-6.4l-296-169.6c-16-9.6-41.6-25.6-56-35.2l-123.2-83.2c-24-16-40-48-40-76.8v-340.8c0-28.8 19.2-60.8 43.2-75.2l296-169.6c12.8-8 28.8-11.2 43.2-11.2 16 0 30.4 3.2 43.2 11.2l294.4 169.6c25.6 14.4 43.2 46.4 43.2 75.2v342.4c1.6 22.4-6.4 54.4-17.6 75.2zM771.2 774.4l144-264c1.6-4.8 4.8-9.6 6.4-16l-308.8-177.6c-1.6 4.8-4.8 9.6-6.4 14.4l-144 264c0 0 0 0 0 0 4.8 3.2 9.6 6.4 14.4 8l294.4 171.2zM915.2 104l-291.2-168v326.4c0 6.4-1.6 14.4-1.6 20.8l304 176v-336c0-4.8-6.4-16-11.2-19.2z" />
<glyph unicode="&#xe904;" glyph-name="cloud-download2" d="M480 24l-104 104-24-24 144-144 144 144-24 24-104-104v360h-32v-360zM448 192h-223.91c-70.556 0-128.090 57.308-128.090 128 0 60.652 42.388 111.624 99.232 124.731v0c-2.123 11.433-3.232 23.221-3.232 35.269 0 106.039 85.961 192 192 192 83.694 0 154.881-53.551 181.166-128.257 24.779 20.167 56.395 32.257 90.834 32.257 75.467 0 137.375-58.053 143.502-131.938v0c55.362-14.081 96.498-64.286 96.498-124.062 0-70.549-57.348-128-128.090-128h-223.91v-32h224.018c88.356 0 159.982 71.814 159.982 160 0 67.085-41.175 124.528-99.748 148.304v0c-16.731 79.784-87.495 139.696-172.252 139.696-27.613 0-53.74-6.359-76.998-17.692-38.484 67.886-111.394 113.692-195.002 113.692-123.712 0-224-100.288-224-224 0-4.421 0.128-8.812 0.381-13.169v0c-56.712-24.642-96.381-81.203-96.381-146.831 0-88.366 71.44-160 159.982-160h224.018v32z" />
<glyph unicode="&#xe905;" glyph-name="home3" d="M1024 288l-192 192v288h-128v-160l-192 192-512-512v-32h128v-320h320v192h128v-192h320v320h128z" />
<glyph unicode="&#xe906;" glyph-name="key2" d="M593.037 273.037l-145.037-145.037h-96v-96h-96v-96h-160v160l337.037 337.037c-11.016 29.564-17.037 61.56-17.037 94.963 0 150.221 121.779 272 272 272s272-121.779 272-272c0-150.221-121.779-272-272-272-33.403 0-65.399 6.021-94.963 17.037v0 0zM447.96 399.96l-319.96-319.96v-112h96v96h96v96h112l127.96 127.96c-47.513 25.397-86.603 64.487-112 112v0 0zM928 528c0 132.548-107.452 240-240 240s-240-107.452-240-240c0-132.548 107.452-240 240-240s240 107.452 240 240v0 0zM864 608v0 0c0-53.019-42.981-96-96-96s-96 42.981-96 96c0 53.019 42.981 96 96 96s96-42.981 96-96zM832 608c0 35.346-28.654 64-64 64s-64-28.654-64-64c0-35.346 28.654-64 64-64s64 28.654 64 64v0 0z" />
<glyph unicode="&#xe907;" glyph-name="note-checked" d="M192 544v-480.040c0-17.924 14.434-31.96 32.239-31.96h447.761v159.811c0 35.82 28.624 64.189 63.933 64.189h128.067v288h-672zM192 576h672v95.781c0 17.821-14.309 32.219-31.96 32.219h-608.080c-17.924 0-31.96-14.309-31.96-31.96v-96.040zM688 0h-463.997c-35.348 0-64.003 28.852-64.003 64.028v607.945c0 35.361 28.852 64.028 64.028 64.028h607.945c35.361 0 64.028-28.624 64.028-63.81v-448.19l-192-224h-16zM704 48l150.398 176h-118.503c-17.475 0-31.896-14.453-31.896-32.281v-143.719zM459.314 173.271l248.902 248.902-22.627 22.627-226.274-226.274-119.765 119.765-22.627-22.627 142.392-142.392z" />
<glyph unicode="&#xe908;" glyph-name="tag-add" d="M288 224v96h32v-96h96v-32h-96v-96h-32v96h-96v32h96zM215.712 360.288v0 0c-52.448-30.472-87.712-87.262-87.712-152.288 0-97.202 78.798-176 176-176 65.026 0 121.816 35.265 152.288 87.712l99.901-99.901c25.080-25.080 65.671-25.151 90.58-0.241l229.661 229.661c24.946 24.946 24.819 65.519-0.241 90.58l-428.189 428.189h-256.012c-35.339 0-63.988-28.398-63.988-63.988v-256.012l87.712-87.712zM248.461 375.058l-88.461 88.942v239.73c0 17.646 14.448 32.27 32.27 32.27h239.73l421.184-417.713c12.515-12.412 12.576-32.543 0.188-45.015l-229.235-230.8c-12.35-12.434-32.509-12.45-44.942 0.051l-108.442 109.032c5.996 17.718 9.246 36.702 9.246 56.445 0 97.202-78.798 176-176 176-19.407 0-38.080-3.141-55.539-8.942v0 0zM304 512v0c-44.183 0-80 35.817-80 80s35.817 80 80 80c44.183 0 80-35.817 80-80s-35.817-80-80-80zM304 544c26.51 0 48 21.49 48 48s-21.49 48-48 48c-26.51 0-48-21.49-48-48s21.49-48 48-48v0zM304 64v0c-79.529 0-144 64.471-144 144s64.471 144 144 144c79.529 0 144-64.471 144-144s-64.471-144-144-144z" />
<glyph unicode="&#xe909;" glyph-name="wwzr-puzzel-b" d="M803.2 430.4c-46.4 0-65.6-30.4-65.6-30.4-16-24-28.8-20.8-28.8 8v132.8c0 28.8-17.6 68.8-40 88l-208 176c-24 17.6-60.8 17.6-83.2 0l-212.8-176c-22.4-19.2-41.6-57.6-41.6-86.4v-132.8c0-28.8 12.8-33.6 28.8-8 0 0 19.2 30.4 65.6 30.4 54.4 0 97.6-43.2 97.6-97.6s-43.2-97.6-97.6-97.6c-46.4 0-65.6 30.4-65.6 30.4-16 24-28.8 20.8-28.8-8v-116.8c0-28.8 24-52.8 52.8-52.8h150.4c28.8 0 35.2-16 12.8-33.6 0 0-17.6-14.4-17.6-54.4 0-54.4 43.2-97.6 97.6-97.6s97.6 43.2 97.6 97.6c0 40-17.6 54.4-17.6 54.4-22.4 19.2-16 33.6 12.8 33.6h144c28.8 0 52.8 24 52.8 52.8v116.8c0 28.8 12.8 33.6 28.8 8 0 0 19.2-30.4 65.6-30.4 54.4 0 97.6 43.2 97.6 97.6 0 51.2-43.2 96-97.6 96z" />
<glyph unicode="&#xe90a;" glyph-name="wwzr-puzzel" d="M419.2-142.4c-72 0-129.6 57.6-129.6 129.6 0 25.6 6.4 44.8 12.8 57.6h-126.4c-46.4 0-84.8 38.4-84.8 84.8v116.8c0 40 19.2 51.2 32 54.4 11.2 3.2 35.2 4.8 56-28.8 0-1.6 12.8-16 38.4-16 36.8 0 65.6 28.8 65.6 65.6s-28.8 65.6-65.6 65.6c-27.2 0-38.4-14.4-40-16-20.8-33.6-44.8-32-56-28.8s-32 16-32 54.4v132.8c0 38.4 22.4 86.4 52.8 112l212.8 176c35.2 28.8 88 28.8 123.2 0l208-176c30.4-25.6 52.8-73.6 52.8-112v-96c14.4 9.6 35.2 17.6 62.4 17.6 72 0 129.6-57.6 129.6-129.6s-57.6-129.6-129.6-129.6c-27.2 0-48 8-62.4 17.6v-81.6c0-46.4-38.4-84.8-84.8-84.8h-120c6.4-12.8 12.8-32 12.8-57.6 1.6-68.8-57.6-128-128-128zM360 19.2c-1.6-1.6-8-11.2-8-32 0-36.8 28.8-65.6 65.6-65.6s65.6 28.8 65.6 65.6c0 20.8-6.4 30.4-8 32-28.8 24-25.6 48-20.8 59.2s17.6 30.4 56 30.4h144c11.2 0 20.8 9.6 20.8 20.8v116.8c0 40 19.2 51.2 32 54.4 11.2 3.2 35.2 4.8 56-28.8 0-1.6 12.8-16 38.4-16 36.8 0 65.6 28.8 65.6 65.6s-28.8 65.6-65.6 65.6c-27.2 0-38.4-14.4-40-16-20.8-32-44.8-32-56-28.8s-32 16-32 54.4v132.8c0 19.2-14.4 49.6-28.8 62.4l-208 176c-11.2 9.6-30.4 9.6-41.6 0l-212.8-176c-14.4-12.8-28.8-43.2-28.8-62.4v-96c14.4 9.6 35.2 17.6 62.4 17.6 72 0 129.6-57.6 129.6-129.6s-57.6-129.6-129.6-129.6c-27.2 0-48 8-62.4 17.6v-81.6c0-11.2 9.6-20.8 20.8-20.8h150.4c38.4 0 51.2-19.2 56-30.4s8-33.6-20.8-57.6zM360 19.2c0 0 0 0 0 0 0-1.6 0-1.6 0 0zM476.8 19.2c0-1.6 0-1.6 0 0 0 0 0 0 0 0zM332.8 44.8v0 0zM321.6 70.4v0 0zM121.6 244.8v0 0zM740.8 254.4v0 0zM740.8 392v0 0zM121.6 403.2v0 0z" />
<glyph unicode="&#xe90b;" glyph-name="wwzr-stelsamen" d="M24 739.2v-809.6h852.8l123.2 200v608h-976zM936 542.4h-108.8v131.2h108.8v-131.2zM936 152l-108.8-9.6v84.8h108.8v-75.2zM432 264h46.4v-19.2h-46.4v19.2zM494.4 264h59.2v-19.2h-59.2v19.2zM606.4 526.4h48v-48l-48 48zM337.6 472v54.4h60.8l-60.8-54.4zM265.6 360l1.6-115.2h-91.2v132.8h56l-20.8-17.6h54.4zM432 228.8h46.4v-132.8h-46.4v132.8zM494.4 228.8h59.2v-132.8h-57.6v132.8zM720 360h49.6l-17.6 17.6h59.2v-132.8h-91.2v115.2zM736 393.6l-67.2 68.8v65.6h142.4v-132.8h-75.2zM668.8 542.4v131.2h142.4v-131.2h-142.4zM652.8 542.4h-64l-81.6 83.2-12.8-11.2v59.2h158.4v-131.2zM478.4 600l-64-57.6h-78.4v131.2h142.4v-73.6zM321.6 542.4h-144v131.2h144v-131.2zM321.6 526.4v-68.8l-72-64h-73.6v132.8h145.6zM160 393.6h-72v132.8h72v-132.8zM160 377.6v-132.8h-72v132.8h72zM160 228.8v-132.8h-72v132.8h72zM176 228.8h91.2l1.6-132.8h-92.8v132.8zM270.4 80v-40h51.2v-46.4h-144v86.4h92.8zM337.6 40h94.4v40h46.4v-86.4h-142.4v46.4zM494.4 80h57.6v-40h100.8v-46.4h-158.4v86.4zM668.8 40h51.2v40h80l11.2-20.8v-65.6h-142.4v46.4zM788.8 139.2c-9.6-1.6-16-12.8-11.2-20.8l12.8-22.4h-70.4v132.8h91.2v-86.4l-22.4-3.2zM827.2 244.8v132.8h108.8v-132.8h-108.8zM827.2 393.6v132.8h108.8v-132.8h-108.8zM160 675.2v-131.2h-72v131.2h72zM88 80h72v-86.4h-72v86.4zM827.2-6.4v36.8l17.6-32c0 0 0 0 0 0l-3.2-4.8h-14.4z" />
<glyph unicode="&#xe90c;" glyph-name="wwzr-bijgebouw2" d="M840 465.6l72 40-232 270.4-11.2-3.2-156.8-49.6-409.6-224 11.2-27.2 36.8 11.2v-219.2l312-192 379.2 208v185.6zM499.2 310.4l-192 222.4 364.8 204.8 190.4-222.4-363.2-204.8zM523.2 692.8l9.6 3.2-256-142.4-22.4-6.4 268.8 145.6zM182.4 491.2l96 27.2 168-196.8v-203.2l-264 163.2v209.6zM478.4 116.8v168l12.8-16 316.8 177.6v-148.8l-329.6-180.8zM945.6 92.8h-88v83.2h-70.4v-83.2h-84.8v-72h84.8v-86.4h70.4v86.4h88z" />
<glyph unicode="&#xe90d;" glyph-name="wwzr-download2" d="M689.6 800h-539.2v-883.2h176l-32 32h-112v819.2h494.4l6.4-6.4v-148.8h163.2l8-6.4v-657.6h-124.8l-32-32h188.8v704zM598.4 57.6v256h-171.2v-256h-86.4l171.2-172.8 171.2 172.8z" />
<glyph unicode="&#xe90e;" glyph-name="wwzr-huis-v2" d="M320-28.8c-1.6 8-9.6 16-19.2 17.6l-180.8 17.6c-8 0-9.6-3.2-1.6-8l36.8-24c8-4.8 6.4-11.2-1.6-14.4l-113.6-46.4c-8-3.2-12.8-8-11.2-9.6s11.2-6.4 17.6-9.6l40-20.8c8-4.8 20.8-4.8 28.8-1.6l113.6 46.4c8 3.2 20.8 3.2 28.8-1.6l62.4-32c8-4.8 12.8 0 11.2 8l-11.2 78.4zM971.2 540.8l-144 264c-8 14.4-22.4 25.6-38.4 30.4s-33.6 3.2-48-6.4l-296-169.6c-16-9.6-41.6-25.6-56-35.2l-123.2-83.2c-24-16-40-48-40-76.8v-340.8c0-28.8 19.2-60.8 43.2-75.2l296-169.6c12.8-8 28.8-11.2 43.2-11.2 16 0 30.4 3.2 43.2 11.2l294.4 169.6c25.6 14.4 43.2 46.4 43.2 75.2v342.4c1.6 22.4-6.4 54.4-17.6 75.2zM771.2 774.4l144-264c1.6-4.8 4.8-9.6 6.4-16l-308.8-177.6c-1.6 4.8-4.8 9.6-6.4 14.4l-144 264c0 0 0 0 0 0 4.8 3.2 9.6 6.4 14.4 8l294.4 171.2zM915.2 104l-291.2-168v326.4c0 6.4-1.6 14.4-1.6 20.8l304 176v-336c0-4.8-6.4-16-11.2-19.2z" />
<glyph unicode="&#xe90f;" glyph-name="draw" d="M931.556 287.289c0 54.983-44.573 99.556-99.556 99.556v0c-12.794-0.004-25.014-2.458-36.218-6.917l0.662 0.233-41.884 41.884-44.089-56.533 32.996-32.924c-6.887-13.183-10.928-28.794-10.928-45.348 0-34.738 17.792-65.321 44.76-83.132l0.372-0.231-26.311-131.484c-25.416-4.448-47.067-18.002-61.912-37.108l-0.168-0.225-461.724 138.453c-1.557 19.947-8.77 37.954-20.018 52.724l0.178-0.244 221.156 354.702c5.742-1.176 12.341-1.849 19.098-1.849 0.011 0 0.022 0 0.033 0h-0.002c0.033 0 0.072 0 0.111 0 14.652 0 28.551 3.223 41.027 8.998l-0.605-0.251 66.133-65.991 44.8 55.751-60.658 60.516c5.524 11.871 8.747 25.77 8.747 40.422 0 0.039 0 0.078 0 0.117v-0.006c0 0.070 0 0.152 0 0.235 0 54.983-44.573 99.556-99.556 99.556s-99.556-44.573-99.556-99.556c0-22.691 7.591-43.608 20.372-60.352l-0.177 0.242-221.511-354.489c-5.694 1.221-12.235 1.92-18.94 1.92-0.067 0-0.133 0-0.2 0h0.010c-0.050 0-0.109 0-0.168 0-54.983 0-99.556-44.573-99.556-99.556s44.573-99.556 99.556-99.556c32.019 0 60.507 15.115 78.719 38.6l0.169 0.227 462.222-138.667c3.84-51.823 46.829-92.413 99.299-92.413 54.983 0 99.556 44.573 99.556 99.556 0 35.353-18.428 66.403-46.202 84.067l-0.404 0.24 26.098 130.56c47.981 7.664 84.216 48.731 84.267 98.27v0.005zM499.413 290.204l128.213 38.756 283.591 362.382-98.56 83.342-266.24-331.307-47.004-153.173z" />
<glyph unicode="&#xe910;" glyph-name="wwzr-huis-v2-11" d="M784 512l-188.8 124.8-369.6 211.2-177.6-342.4v-416l368-211.2 368 214.4v419.2zM238.4 803.2l334.4-190.4-155.2-291.2-331.2 190.4 152 291.2zM80 478.4l329.6-188.8v-369.6l-329.6 188.8v369.6zM835.2-28.8l68.8 36.8-238.4-4.8 19.2-110.4 68.8 36.8 172.8-72 81.6 43.2z" />
<glyph unicode="&#xe911;" d="M321.6 609.6c0 0 0 0 0 0 1.6-1.6 1.6-1.6 0 0 0 0 0 0 0 0z" />
<glyph unicode="&#xe912;" d="M856 449.6l-283.2-164.8c-16-8-27.2-30.4-27.2-48v-326.4c0-17.6 12.8-24 27.2-16l283.2 163.2c16 9.6 27.2 30.4 27.2 48v328c0 17.6-12.8 24-27.2 16z" />
<glyph unicode="&#xe913;" d="M840 500.8c16 9.6 20.8 28.8 12.8 44.8l-139.2 252.8c-8 16-27.2 20.8-43.2 12.8l-281.6-163.2c-16-8-20.8-28.8-12.8-44.8l137.6-252.8c8-16 27.2-20.8 43.2-12.8l283.2 163.2z" />
<glyph unicode="&#xe914;" d="M496 259.2c0 17.6-6.4 44.8-16 60.8l-142.4 260.8c-8 16-16 28.8-16 28.8s-12.8-6.4-27.2-17.6l-112-75.2c-14.4-9.6-27.2-32-27.2-49.6v-345.6c0-17.6 12.8-38.4 27.2-48l284.8-163.2c16-8 27.2-14.4 27.2-14.4 0 1.6 0 16 0 33.6l1.6 329.6z" />
<glyph unicode="&#xe915;" d="M496-102.4c0 1.6 0 1.6 0 0s0-1.6 0-1.6c0-1.6 0 0 0 1.6z" />
<glyph unicode="&#xe916;" glyph-name="projects" d="M94.364-8.604h725.404v94.791h-653.511v422.542h-71.893v-517.333zM482.702 653.298h-266.667v-517.333h725.333v439.964h-435.271l-23.396 77.369z" />
<glyph unicode="&#xe917;" glyph-name="wwzr_huis3" d="M700.8 862.4l-358.4-204.8 174.4-323.2 353.6 203.2-169.6 324.8zM385.6 646.4l302.4 172.8 140.8-268.8-299.2-172.8-144 268.8zM297.6 598.4l-179.2-147.2v-387.2l358.4-209.6v409.6l-179.2 334.4zM150.4 81.6v355.2l137.6 113.6 156.8-294.4v-345.6l-294.4 171.2zM889.6 465.6l-342.4-196.8v-414.4l342.4 206.4v404.8zM579.2-89.6v340.8l278.4 160v-331.2l-278.4-169.6z" />
<glyph unicode="&#xe918;" glyph-name="wwzr_huis4" d="M696 844.8l-332.8-190.4 160-299.2 329.6 188.8zM126.4 444.8v-374.4l337.6-193.6 3.2 380.8-176 318.4zM884.8 433.6l-313.6-180.8v-380.8l315.2 190.4z" />
<glyph unicode="&#xe919;" glyph-name="wwzr_kavel1" d="M804.16 400.32v142.72l-109.6 211.2-228.96-130.88-116.16-76.48v-131.36l-299.2-175.2 392.32-277.76 531.2 317.28zM784 297.28l-197.76-113.6v228.32l197.76 113.76v-228.48zM484.16 611.36l202.24 115.040 93.76-180.48-200-114.88zM566.4 415.2v-231.52l-197.28 115.52v237.12l98.24 64zM80 239.040l269.76 157.92v-109.12l226.24-132.64 227.36 130.56v94.88l140.64-99.52-500.64-299.36z" />
<glyph unicode="&#xe91a;" glyph-name="wwzr_kavel2" d="M580 477.44l-25.6-14.56c0 3.040 0 5.92 0 8.96 0.002 2.839 1.096 5.429 2.887 7.367 9.829 6.48 26.772 31.915 34.494 61.1 2.139 8.653 3.419 16.973 4.859 24.173v22.72c-2.080 9.6-3.52 19.2-6.4 28.48-5.023 27.479-29.711 60.499-63.327 79.647-2.34 0.83-5.605 3.903-7.506 7.768-21.773 49-69.911 82.481-125.869 82.481-68.297 0-124.946-49.874-135.512-115.188-0.755-3.483-1.731-11.997-2.018-20.686-0.007-6.662-0.007-13.222 1.113-19.782-8 0-16 0-23.68-1.28-61.004-4.999-111.287-51.19-122.586-111.147-0.134-5.333-1.734-9.813-2.694-14.293v-22.72c1.28-6.72 2.4-13.44 3.84-20.16 14.734-61.24 69.038-106.039 133.805-106.039 9.267 0 18.319 0.917 27.072 2.666 12.883 2.734 26.163 8.014 40.243 12.494-7.583 5.658 9.63-12.802 30.611-25.742l-333.651-191.218 433.92-250.4 569.92 328.32zM328.96 393.76c-2.391 5.087-7.473 8.546-13.363 8.546-3.941 0-7.521-1.549-10.163-4.071-16.657-10.595-36.961-16.89-58.734-16.89-61.061 0-110.56 49.499-110.56 110.56 0 55.763 41.283 101.884 94.954 109.467 4.842 0.622 9.764 0.938 14.76 0.938 8.696 0 17.168-0.958 25.317-2.775 0.708-0.44 2.421-0.779 4.213-0.779 7.688 0 13.92 6.232 13.92 13.92 0 2.136-0.481 4.159-1.34 5.967-2.444 8.452-3.871 18.257-3.871 28.396s1.427 19.944 4.090 29.226c10.837 42.513 48.812 76.13 95.339 80.973 3.404 0.319 6.805 0.477 10.243 0.477 46.482 0 86.185-29.020 101.981-69.93 1.334-5.199 5.919-10.67 11.955-13.645 36.662-18.352 61.297-55.487 61.297-98.375 0-3.749-0.188-7.454-0.556-11.107-1.038-24.777-14.175-50.651-34.421-68.731-5.614-4.495-9.114-11.217-9.114-18.757 0-1.775 0.194-3.505 0.562-5.17 0.489-3.686 0.785-8.129 0.785-12.642s-0.296-8.956-0.87-13.312c0.146-6.956-4-22.201-10.947-35.775-5.752-17.229-28.008-40.078-56.107-51.607-12.303-5.060-25.742-7.845-39.831-7.845-3.133 0-6.234 0.138-9.298 0.407l-1.203-0.028v5.92c0 7.36 0 14.88 0 22.24 0 41.44 0 82.88 0 124.32-0.008 0.169-0.012 0.367-0.012 0.565 0 4.083 1.865 7.73 4.79 10.136 18.263 16.018 36.343 33.618 54.583 50.258 3.241 2.602 5.299 6.564 5.299 11.006 0 1.321-0.182 2.6-0.522 3.813-0.862 5.025-5.208 8.947-10.513 9.18-4.651-0.056-9.231-1.796-12.869-4.674-12.754-10.845-24.754-22.525-37.074-33.885l-3.52-2.88v8.48q0 64 0 128c0.103 0.634 0.163 1.365 0.163 2.109 0 7.599-6.161 13.76-13.76 13.76-1.846 0-3.606-0.363-5.214-1.022-5.011-1.897-8.574-6.742-8.574-12.419 0-0.291 0.009-0.58 0.028-0.866q-0.002-15.961-0.002-30.841v-209.92c-2.080 0.8-3.52 1.28-4.96 2.080l-119.84 63.2c0.973-0.251-2.675 1.723-6.682 2.833-1.173 0.297-2.293 0.44-3.446 0.44-5.814 0-10.776-3.648-12.721-8.78-0.558-1.477-0.863-3.078-0.863-4.749 0-5.466 3.263-10.17 7.947-12.27l58.325-30.914 76.96-40.96c1.762-0.712 3.499-2.665 4.147-5.064 0.013-16.056 0.013-30.616 0.013-46.456 0-2.56 0-4.96 0-7.36-1.6 0.8-3.68 1.92-5.6 1.92h-1.28c-7.637 0.456-28.885 15.201-43.629 35.063zM61.6 152.48l311.68 177.6c2.56-0.8 4.8-1.92 7.36-2.72v-115.040c0-11.68 0-23.52 0-35.2-0.023-0.295-0.037-0.639-0.037-0.986 0-7.334 5.946-13.28 13.28-13.28 0.294 0 0.587 0.010 0.876 0.028 7.445 0.363 13.374 6.52 13.374 14.062 0 0.683-0.049 1.354-0.143 2.011q0.009 67.925 0.009 135.925v7.36c9.44 0 18.080 0 26.56 1.76 56.871 6.547 104.274 50.105 116.79 106.766l28.65 16.914 382.4-217.28-518.4-298.72z" />
<glyph unicode="&#xe91b;" glyph-name="wwzr_am-shape" d="M881.12 460.16l-351.040 286.4c-4.779 3.915-10.952 6.288-17.68 6.288s-12.901-2.373-17.73-6.327l-351.95-286.201c-6.18-5.172-10.083-12.889-10.083-21.517 0-0.142 0.001-0.283 0.003-0.424v-446.379c0-0.002 0-0.005 0-0.007 0-15.239 12.174-27.635 27.327-27.992l704.033-0.001c15.464 0 28 12.536 28 28v446.4c-0.13 8.839-4.335 16.67-10.817 21.713zM835.52 20h-647.040v405.12l323.52 263.52 323.52-263.36v-405.28z" />
<glyph unicode="&#xe91c;" glyph-name="wwzr_am-style" d="M902.72 670.080c-49.598 44.873-115.685 72.334-188.186 72.334-1.004 0-2.006-0.005-3.007-0.016-0.576 0.008-1.438 0.012-2.301 0.012-74.624 0-142.618-28.381-193.779-74.939l-3.448-3.151-3.68 3.36c-50.928 46.349-118.923 74.73-193.546 74.73-0.863 0-1.725-0.004-2.586-0.011-0.717 0.010-1.719 0.015-2.722 0.015-72.501 0-138.588-27.461-188.427-72.55-48.912-43.886-79.708-107.594-79.758-178.496 0.369-72.695 32.092-137.898 82.323-182.841l0.237-0.208 346.24-317.92c11.071-10.012 25.82-16.139 42-16.139s30.929 6.127 42.054 16.187l346.026 317.872c50.446 45.105 82.164 110.249 82.56 182.809-0.001 71.040-30.807 134.815-79.776 178.753zM862.4 350.080l-346.080-318.24c-1.173-0.863-2.646-1.381-4.24-1.381s-3.067 0.518-4.26 1.395l-346.060 317.586c-39.030 35.015-63.591 85.479-64 141.687 0.217 54.698 24.019 103.72 61.744 137.518 39.886 35.905 92.711 57.772 150.643 57.772 0.989 0 1.976-0.006 2.962-0.019 0.465 0.007 1.192 0.011 1.92 0.011 60.112 0 114.903-22.783 156.208-60.186l22.362-20.623c4.97-4.585 11.637-7.396 18.96-7.396s13.99 2.811 18.979 7.414l22.541 20.782c41.085 37.225 95.856 60.010 155.949 60.010 0.749 0 1.498-0.004 2.245-0.011 0.74 0.013 1.749 0.019 2.759 0.019 57.913 0 110.719-21.868 150.609-57.798 37.698-33.773 61.5-82.796 61.717-137.382-0.671-56.455-25.571-106.925-64.758-141.623z" />
<glyph unicode="&#xe91d;" glyph-name="wwzr_am-value" d="M987.52 757.28h-951.040c-15.464 0-28-12.536-28-28v-549.76c0-15.464 12.536-28 28-28s28 12.536 28 28c0 15.464-12.536 28-28 28s-28-12.536-28-28c0-15.464 12.536-28 28-28h207.68l-11.040-162.080c-0.039-0.557-0.062-1.207-0.062-1.862 0-15.464 12.536-28 28-28 5.608 0 10.831 1.649 15.211 4.488l289.811 187.454h421.44c15.464 0 28 12.536 28 28v549.76c0 15.464-12.536 28-28 28zM960 207.36h-402.24c-0.002 0-0.005 0-0.008 0-5.646 0-10.902-1.671-15.3-4.546l-249.653-161.374 9.28 136.8c0.042 0.574 0.066 1.245 0.066 1.92 0 15.431-12.482 27.946-27.901 28h-0.005l-210.24-0.8v493.92h896v-493.92z" />
<glyph unicode="&#xe91e;" glyph-name="units" d="M712.676-0.996h158.436v397.582l-242.631 269.44-71.111-77.938 155.307-172.373v-416.711zM420.267 666.027l-245.76-269.44v-397.582h122.453v180.267h119.538v-180.267h246.4v397.582l-242.631 269.44z" />
<glyph unicode="&#xe91f;" glyph-name="location" d="M512 896c-176.732 0-320-143.268-320-320 0-320 320-704 320-704s320 384 320 704c0 176.732-143.27 320-320 320zM512 384c-106.040 0-192 85.96-192 192s85.96 192 192 192 192-85.96 192-192-85.96-192-192-192z" />
<glyph unicode="&#xe920;" glyph-name="location2" d="M512 896c-176.732 0-320-143.268-320-320 0-320 320-704 320-704s320 384 320 704c0 176.732-143.27 320-320 320zM512 380c-108.248 0-196 87.752-196 196s87.752 196 196 196 196-87.752 196-196-87.752-196-196-196zM388 576c0 68.483 55.517 124 124 124s124-55.517 124-124c0-68.483-55.517-124-124-124s-124 55.517-124 124z" />
<glyph unicode="&#xe921;" glyph-name="compass" d="M544.010-128.004c-2.296 0-4.622 0.25-6.94 0.764-14.648 3.25-25.070 16.238-25.070 31.24v480h-480c-15.002 0-27.992 10.422-31.24 25.070-3.25 14.646 4.114 29.584 17.708 35.928l960 448c12.196 5.688 26.644 3.144 36.16-6.372 9.516-9.514 12.060-23.966 6.372-36.16l-448-960c-5.342-11.44-16.772-18.47-28.99-18.47zM176.242 448h367.758c17.674 0 32-14.328 32-32v-367.758l349.79 749.546-749.548-349.788z" />
<glyph unicode="&#xe922;" glyph-name="compass2" d="M512 896c-282.77 0-512-229.23-512-512s229.23-512 512-512 512 229.23 512 512-229.23 512-512 512zM96 384c0 229.75 186.25 416 416 416 109.574 0 209.232-42.386 283.534-111.628l-411.534-176.372-176.372-411.534c-69.242 74.302-111.628 173.96-111.628 283.534zM585.166 310.834l-256.082-109.75 109.75 256.082 146.332-146.332zM512-32c-109.574 0-209.234 42.386-283.532 111.628l411.532 176.372 176.372 411.532c69.242-74.298 111.628-173.958 111.628-283.532 0-229.75-186.25-416-416-416z" />
<glyph unicode="&#xe923;" glyph-name="floppy-disk" d="M896 896h-896v-1024h1024v896l-128 128zM512 768h128v-256h-128v256zM896 0h-768v768h64v-320h576v320h74.978l53.022-53.018v-714.982z" />
<glyph unicode="&#xe924;" d="M72.16 793.28v-865.6h865.6v865.6zM921.92-56.32h-833.76v833.6h833.6z" />
<glyph unicode="&#xe925;" d="M387.84 111.68c10.5-10.313 24.906-16.68 40.8-16.68s30.3 6.366 40.809 16.688l363.831 360.312c10.43 10.328 16.887 24.65 16.887 40.48s-6.458 30.152-16.883 40.475l-57.605 56.965c-10.701 9.852-25.045 15.892-40.8 15.892s-30.099-6.040-40.843-15.93l-265.237-263.321-112 112c-10.701 9.852-25.045 15.892-40.8 15.892s-30.099-6.040-40.843-15.93l-57.397-56.921c-10.43-10.328-16.887-24.65-16.887-40.48s6.458-30.152 16.883-40.475zM201.28 377.28l57.6 56.96c4.317 4.196 10.216 6.783 16.72 6.783s12.403-2.587 16.726-6.788l136.474-135.675 289.6 288c4.42 3.955 10.288 6.373 16.72 6.373s12.3-2.418 16.744-6.394l57.576-56.939c4.214-4.249 6.818-10.1 6.818-16.56s-2.604-12.311-6.82-16.562l-363.998-360.958c-4.42-3.955-10.288-6.373-16.72-6.373s-12.3 2.418-16.744 6.394l-210.696 207.979c-4.214 4.249-6.818 10.1-6.818 16.56s2.604 12.311 6.82 16.562z" />
<glyph unicode="&#xe926;" glyph-name="wwzr_am-uncheck" d="M72.16 793.28v-865.6h865.6v865.6zM921.76-56.32h-833.6v833.6h833.6z" />
<glyph unicode="&#xe927;" glyph-name="wwzr_am-check2" d="M387.84 111.68c10.5-10.313 24.906-16.68 40.8-16.68s30.3 6.366 40.809 16.688l363.831 360.312c10.43 10.328 16.887 24.65 16.887 40.48s-6.458 30.152-16.883 40.475l-57.605 56.965c-10.701 9.852-25.045 15.892-40.8 15.892s-30.099-6.040-40.843-15.93l-265.237-263.321-112 112c-10.701 9.852-25.045 15.892-40.8 15.892s-30.099-6.040-40.843-15.93l-57.397-56.921c-10.43-10.328-16.887-24.65-16.887-40.48s6.458-30.152 16.883-40.475zM201.28 377.28l57.6 56.96c4.317 4.196 10.216 6.783 16.72 6.783s12.403-2.587 16.726-6.788l136.474-135.675 289.6 288c4.42 3.955 10.288 6.373 16.72 6.373s12.3-2.418 16.744-6.394l57.576-56.939c4.214-4.249 6.818-10.1 6.818-16.56s-2.604-12.311-6.82-16.562l-363.998-360.958c-4.42-3.955-10.288-6.373-16.72-6.373s-12.3 2.418-16.744 6.394l-210.696 207.979c-4.214 4.249-6.818 10.1-6.818 16.56s2.604 12.311 6.82 16.562z" />
<glyph unicode="&#xe928;" glyph-name="wwzr_am-logo" d="M325.92-101.806c-14.138 0-25.6 11.462-25.6 25.6v127.2l-135.36 0.96c-14.070 0.090-25.441 11.517-25.441 25.6 0 0.056 0 0.113 0.001 0.169v440.311c0 0.043 0 0.094 0 0.145 0 7.99 3.66 15.124 9.395 19.819l350.285 282.436c4.341 3.499 9.923 5.616 16 5.616s11.659-2.117 16.049-5.654l348.751-282.362c5.776-4.728 9.435-11.856 9.44-19.839v-440.481c0-14.138-11.462-25.6-25.6-25.6h-315.36c-0.011 0-0.025 0-0.039 0-7.294 0-13.871 3.070-18.51 7.987l-0.012 0.013-236.32 255.040c-29.049 29.115-47.012 69.302-47.012 113.684 0 43.983 17.641 83.845 46.233 112.897 28.556 28.549 68.030 46.219 111.632 46.219 0.122 0 0.244 0 0.366 0 0.129 0.001 0.305 0.001 0.481 0.001 42.033 0 80.318-16.048 109.062-42.351 28.568 26.592 67.058 42.831 109.341 42.831 0.104 0 0.209 0 0.313 0 43.776-0.037 83.39-17.894 111.973-46.709 28.981-29.16 46.887-69.334 46.887-113.69s-17.906-84.531-46.885-113.688l-155.032-155.832c-4.698-4.798-11.241-7.773-18.48-7.773-14.278 0-25.853 11.575-25.853 25.853 0 7.040 2.814 13.422 7.378 18.085l155.036 155.835c20.298 19.957 32.876 47.71 32.876 78.401 0 29.975-11.998 57.147-31.453 76.976-19.413 19.737-46.428 31.979-76.302 31.983-0.283 0.003-0.617 0.004-0.951 0.004-30.383 0-57.912-12.221-77.94-32.015l-12.309-12.469c-4.63-4.62-11.022-7.476-18.080-7.476s-13.45 2.857-18.080 7.477l-12.32 12.32c-20.041 19.785-47.591 32.005-77.996 32.005-0.367 0-0.734-0.002-1.1-0.005-29.819-0.003-56.834-12.245-76.25-31.985-19.405-19.818-31.371-46.958-31.371-76.892 0-30.652 12.546-58.373 32.783-78.309l229.454-247.373h279.040v402.72l-323.84 261.76-324.64-261.76v-402.88l135.36-0.96c0.143 0.003 0.311 0.005 0.48 0.005 14.138 0 25.6-11.462 25.6-25.6 0-0.002 0-0.003 0-0.005v-87.84l85.28 91.040c4.691 5.003 11.341 8.12 18.72 8.12 14.16 0 25.64-11.479 25.64-25.64 0-6.782-2.633-12.949-6.933-17.534l-129.587-138.386c-4.677-4.936-11.278-8.007-18.597-8.007-0.212 0-0.423 0.003-0.634 0.008z" />
</font>
</defs>
</svg>
